<mxfile host="65bd71144e" pages="20">
    <diagram id="ZkPhA30Rff_n_aJI1uOT" name="01 - routes">
        <mxGraphModel dx="855" dy="587" grid="1" gridSize="10" guides="1" tooltips="1" connect="1" arrows="1" fold="1" page="1" pageScale="1" pageWidth="1920" pageHeight="1200" math="0" shadow="0">
            <root>
                <mxCell id="0"/>
                <mxCell id="1" parent="0"/>
                <mxCell id="YxTgbZuhf_boNZElpSq_-1" value="" style="rounded=0;whiteSpace=wrap;html=1;fontSize=16;fillColor=#fff2cc;strokeColor=#d6b656;" parent="1" vertex="1">
                    <mxGeometry x="1520" y="475" width="430" height="60" as="geometry"/>
                </mxCell>
                <mxCell id="YxTgbZuhf_boNZElpSq_-2" value="Reports Module" style="rounded=0;whiteSpace=wrap;html=1;fontSize=16;fillColor=#fff2cc;strokeColor=#d6b656;" parent="1" vertex="1">
                    <mxGeometry x="1520" y="535" width="430" height="20" as="geometry"/>
                </mxCell>
                <mxCell id="YxTgbZuhf_boNZElpSq_-3" value="" style="rounded=0;whiteSpace=wrap;html=1;fontSize=16;fillColor=#fff2cc;strokeColor=#d6b656;" parent="1" vertex="1">
                    <mxGeometry x="1520" y="375" width="430" height="60" as="geometry"/>
                </mxCell>
                <mxCell id="YxTgbZuhf_boNZElpSq_-4" value="POST /auth/signup" style="rounded=0;whiteSpace=wrap;html=1;fontSize=11;" parent="1" vertex="1">
                    <mxGeometry x="1010" y="370" width="150" height="30" as="geometry"/>
                </mxCell>
                <mxCell id="YxTgbZuhf_boNZElpSq_-5" value="Body - { email, password }" style="rounded=0;whiteSpace=wrap;html=1;fontSize=11;" parent="1" vertex="1">
                    <mxGeometry x="1170" y="370" width="150" height="30" as="geometry"/>
                </mxCell>
                <mxCell id="YxTgbZuhf_boNZElpSq_-6" value="Method and Route" style="rounded=0;whiteSpace=wrap;html=1;fontSize=11;fontStyle=1;fillColor=#e1d5e7;strokeColor=#9673a6;" parent="1" vertex="1">
                    <mxGeometry x="1010" y="330" width="150" height="30" as="geometry"/>
                </mxCell>
                <mxCell id="YxTgbZuhf_boNZElpSq_-7" value="Body or Query String" style="rounded=0;whiteSpace=wrap;html=1;fontSize=11;fontStyle=1;fillColor=#e1d5e7;strokeColor=#9673a6;" parent="1" vertex="1">
                    <mxGeometry x="1170" y="330" width="150" height="30" as="geometry"/>
                </mxCell>
                <mxCell id="YxTgbZuhf_boNZElpSq_-8" value="Description" style="rounded=0;whiteSpace=wrap;html=1;fontSize=11;fontStyle=1;fillColor=#e1d5e7;strokeColor=#9673a6;" parent="1" vertex="1">
                    <mxGeometry x="1330" y="330" width="150" height="30" as="geometry"/>
                </mxCell>
                <mxCell id="YxTgbZuhf_boNZElpSq_-9" value="Create a new user and sign in" style="rounded=0;whiteSpace=wrap;html=1;fontSize=11;" parent="1" vertex="1">
                    <mxGeometry x="1330" y="370" width="150" height="30" as="geometry"/>
                </mxCell>
                <mxCell id="YxTgbZuhf_boNZElpSq_-10" value="POST /auth/signin" style="rounded=0;whiteSpace=wrap;html=1;fontSize=11;" parent="1" vertex="1">
                    <mxGeometry x="1010" y="410" width="150" height="30" as="geometry"/>
                </mxCell>
                <mxCell id="YxTgbZuhf_boNZElpSq_-11" value="Body - { email, password }" style="rounded=0;whiteSpace=wrap;html=1;fontSize=11;" parent="1" vertex="1">
                    <mxGeometry x="1170" y="410" width="150" height="30" as="geometry"/>
                </mxCell>
                <mxCell id="YxTgbZuhf_boNZElpSq_-12" value="Sign in as an existing user" style="rounded=0;whiteSpace=wrap;html=1;fontSize=11;" parent="1" vertex="1">
                    <mxGeometry x="1330" y="410" width="150" height="30" as="geometry"/>
                </mxCell>
                <mxCell id="YxTgbZuhf_boNZElpSq_-13" value="GET /reports" style="rounded=0;whiteSpace=wrap;html=1;fontSize=11;" parent="1" vertex="1">
                    <mxGeometry x="1010" y="450" width="150" height="30" as="geometry"/>
                </mxCell>
                <mxCell id="YxTgbZuhf_boNZElpSq_-14" value="QS - make, model, year, mileage, longitude, latitude" style="rounded=0;whiteSpace=wrap;html=1;fontSize=11;" parent="1" vertex="1">
                    <mxGeometry x="1170" y="450" width="150" height="30" as="geometry"/>
                </mxCell>
                <mxCell id="YxTgbZuhf_boNZElpSq_-15" value="Get an estimate for the cars value" style="rounded=0;whiteSpace=wrap;html=1;fontSize=11;" parent="1" vertex="1">
                    <mxGeometry x="1330" y="450" width="150" height="30" as="geometry"/>
                </mxCell>
                <mxCell id="YxTgbZuhf_boNZElpSq_-16" value="POST /reports" style="rounded=0;whiteSpace=wrap;html=1;fontSize=11;" parent="1" vertex="1">
                    <mxGeometry x="1010" y="490" width="150" height="30" as="geometry"/>
                </mxCell>
                <mxCell id="YxTgbZuhf_boNZElpSq_-17" value="Body - { make, model, year, mileage, longitude, latitude, price }" style="rounded=0;whiteSpace=wrap;html=1;fontSize=9;" parent="1" vertex="1">
                    <mxGeometry x="1170" y="490" width="150" height="30" as="geometry"/>
                </mxCell>
                <mxCell id="YxTgbZuhf_boNZElpSq_-18" value="Report how much a vehicle sold for" style="rounded=0;whiteSpace=wrap;html=1;fontSize=11;" parent="1" vertex="1">
                    <mxGeometry x="1330" y="490" width="150" height="30" as="geometry"/>
                </mxCell>
                <mxCell id="YxTgbZuhf_boNZElpSq_-19" value="PATCH /reports/:id" style="rounded=0;whiteSpace=wrap;html=1;fontSize=11;" parent="1" vertex="1">
                    <mxGeometry x="1010" y="530" width="150" height="30" as="geometry"/>
                </mxCell>
                <mxCell id="YxTgbZuhf_boNZElpSq_-20" value="Body - { approved: true }" style="rounded=0;whiteSpace=wrap;html=1;fontSize=11;" parent="1" vertex="1">
                    <mxGeometry x="1170" y="530" width="150" height="30" as="geometry"/>
                </mxCell>
                <mxCell id="YxTgbZuhf_boNZElpSq_-21" value="Approve or reject a report submitted by a user" style="rounded=0;whiteSpace=wrap;html=1;fontSize=11;" parent="1" vertex="1">
                    <mxGeometry x="1330" y="530" width="150" height="30" as="geometry"/>
                </mxCell>
                <mxCell id="YxTgbZuhf_boNZElpSq_-22" value="" style="shape=curlyBracket;whiteSpace=wrap;html=1;rounded=0;fontSize=9;rotation=-180;" parent="1" vertex="1">
                    <mxGeometry x="1490" y="370" width="30" height="70" as="geometry"/>
                </mxCell>
                <mxCell id="YxTgbZuhf_boNZElpSq_-23" value="Controllers" style="rounded=0;whiteSpace=wrap;html=1;fontSize=16;fontStyle=1;fillColor=#dae8fc;strokeColor=#6c8ebf;" parent="1" vertex="1">
                    <mxGeometry x="1530" y="330" width="130" height="30" as="geometry"/>
                </mxCell>
                <mxCell id="YxTgbZuhf_boNZElpSq_-24" value="Users Controller" style="rounded=0;whiteSpace=wrap;html=1;fontSize=11;" parent="1" vertex="1">
                    <mxGeometry x="1530" y="390" width="130" height="30" as="geometry"/>
                </mxCell>
                <mxCell id="YxTgbZuhf_boNZElpSq_-25" value="Reports Controller" style="rounded=0;whiteSpace=wrap;html=1;fontSize=11;" parent="1" vertex="1">
                    <mxGeometry x="1530" y="490" width="130" height="30" as="geometry"/>
                </mxCell>
                <mxCell id="YxTgbZuhf_boNZElpSq_-26" value="" style="shape=curlyBracket;whiteSpace=wrap;html=1;rounded=0;fontSize=9;rotation=-180;" parent="1" vertex="1">
                    <mxGeometry x="1490" y="450" width="30" height="110" as="geometry"/>
                </mxCell>
                <mxCell id="YxTgbZuhf_boNZElpSq_-27" value="Services" style="rounded=0;whiteSpace=wrap;html=1;fontSize=16;fontStyle=1;fillColor=#dae8fc;strokeColor=#6c8ebf;" parent="1" vertex="1">
                    <mxGeometry x="1670" y="330" width="130" height="30" as="geometry"/>
                </mxCell>
                <mxCell id="YxTgbZuhf_boNZElpSq_-28" value="Repositories" style="rounded=0;whiteSpace=wrap;html=1;fontSize=16;fontStyle=1;fillColor=#dae8fc;strokeColor=#6c8ebf;" parent="1" vertex="1">
                    <mxGeometry x="1810" y="330" width="130" height="30" as="geometry"/>
                </mxCell>
                <mxCell id="YxTgbZuhf_boNZElpSq_-29" value="Users Service" style="rounded=0;whiteSpace=wrap;html=1;fontSize=11;" parent="1" vertex="1">
                    <mxGeometry x="1670" y="390" width="130" height="30" as="geometry"/>
                </mxCell>
                <mxCell id="YxTgbZuhf_boNZElpSq_-30" value="Users Repository" style="rounded=0;whiteSpace=wrap;html=1;fontSize=11;" parent="1" vertex="1">
                    <mxGeometry x="1810" y="390" width="130" height="30" as="geometry"/>
                </mxCell>
                <mxCell id="YxTgbZuhf_boNZElpSq_-31" value="Reports Service" style="rounded=0;whiteSpace=wrap;html=1;fontSize=11;" parent="1" vertex="1">
                    <mxGeometry x="1670" y="490" width="130" height="30" as="geometry"/>
                </mxCell>
                <mxCell id="YxTgbZuhf_boNZElpSq_-32" value="Reports Repository" style="rounded=0;whiteSpace=wrap;html=1;fontSize=11;" parent="1" vertex="1">
                    <mxGeometry x="1810" y="490" width="130" height="30" as="geometry"/>
                </mxCell>
                <mxCell id="YxTgbZuhf_boNZElpSq_-33" value="Users Module" style="rounded=0;whiteSpace=wrap;html=1;fontSize=16;fillColor=#fff2cc;strokeColor=#d6b656;" parent="1" vertex="1">
                    <mxGeometry x="1520" y="435" width="430" height="20" as="geometry"/>
                </mxCell>
                <mxCell id="e92-0lLkvxFAv3cz48rX-1" value="Used Car Pricing API" style="rounded=0;whiteSpace=wrap;html=1;fontSize=16;fontStyle=1;fillColor=#dae8fc;strokeColor=#6c8ebf;" parent="1" vertex="1">
                    <mxGeometry x="670" y="330" width="280" height="30" as="geometry"/>
                </mxCell>
                <mxCell id="e92-0lLkvxFAv3cz48rX-2" value="Users Sign up with email/password" style="rounded=0;whiteSpace=wrap;html=1;fontSize=11;" parent="1" vertex="1">
                    <mxGeometry x="670" y="390" width="280" height="30" as="geometry"/>
                </mxCell>
                <mxCell id="e92-0lLkvxFAv3cz48rX-3" value="Users get an estimate for how much their car is worth base on the make/model/year/mileage" style="rounded=0;whiteSpace=wrap;html=1;fontSize=11;" parent="1" vertex="1">
                    <mxGeometry x="670" y="450" width="280" height="30" as="geometry"/>
                </mxCell>
                <mxCell id="e92-0lLkvxFAv3cz48rX-4" value="User can report what they sold their vehicles for" style="rounded=0;whiteSpace=wrap;html=1;fontSize=11;" parent="1" vertex="1">
                    <mxGeometry x="670" y="490" width="280" height="30" as="geometry"/>
                </mxCell>
                <mxCell id="e92-0lLkvxFAv3cz48rX-5" value="Admins have to approve reported sales" style="rounded=0;whiteSpace=wrap;html=1;fontSize=11;" parent="1" vertex="1">
                    <mxGeometry x="670" y="530" width="280" height="30" as="geometry"/>
                </mxCell>
                <mxCell id="e92-0lLkvxFAv3cz48rX-13" value="" style="shape=curlyBracket;whiteSpace=wrap;html=1;rounded=0;fontSize=9;rotation=-180;direction=west;" parent="1" vertex="1">
                    <mxGeometry x="970" y="370" width="30" height="70" as="geometry"/>
                </mxCell>
                <mxCell id="e92-0lLkvxFAv3cz48rX-14" style="edgeStyle=orthogonalEdgeStyle;rounded=0;orthogonalLoop=1;jettySize=auto;html=1;entryX=0.1;entryY=0.5;entryDx=0;entryDy=0;entryPerimeter=0;" parent="1" source="e92-0lLkvxFAv3cz48rX-2" target="e92-0lLkvxFAv3cz48rX-13" edge="1">
                    <mxGeometry relative="1" as="geometry"/>
                </mxCell>
                <mxCell id="e92-0lLkvxFAv3cz48rX-15" value="" style="shape=curlyBracket;whiteSpace=wrap;html=1;rounded=0;fontSize=9;rotation=-180;direction=west;" parent="1" vertex="1">
                    <mxGeometry x="970" y="450" width="30" height="30" as="geometry"/>
                </mxCell>
                <mxCell id="e92-0lLkvxFAv3cz48rX-16" value="" style="shape=curlyBracket;whiteSpace=wrap;html=1;rounded=0;fontSize=9;rotation=-180;direction=west;" parent="1" vertex="1">
                    <mxGeometry x="970" y="490" width="30" height="30" as="geometry"/>
                </mxCell>
                <mxCell id="e92-0lLkvxFAv3cz48rX-17" value="" style="shape=curlyBracket;whiteSpace=wrap;html=1;rounded=0;fontSize=9;rotation=-180;direction=west;" parent="1" vertex="1">
                    <mxGeometry x="970" y="530" width="30" height="30" as="geometry"/>
                </mxCell>
                <mxCell id="e92-0lLkvxFAv3cz48rX-18" style="edgeStyle=orthogonalEdgeStyle;rounded=0;orthogonalLoop=1;jettySize=auto;html=1;entryX=-0.011;entryY=0.489;entryDx=0;entryDy=0;entryPerimeter=0;" parent="1" source="e92-0lLkvxFAv3cz48rX-3" target="e92-0lLkvxFAv3cz48rX-15" edge="1">
                    <mxGeometry relative="1" as="geometry"/>
                </mxCell>
                <mxCell id="e92-0lLkvxFAv3cz48rX-19" style="edgeStyle=orthogonalEdgeStyle;rounded=0;orthogonalLoop=1;jettySize=auto;html=1;entryX=0;entryY=0.5;entryDx=0;entryDy=0;entryPerimeter=0;" parent="1" source="e92-0lLkvxFAv3cz48rX-4" target="e92-0lLkvxFAv3cz48rX-16" edge="1">
                    <mxGeometry relative="1" as="geometry"/>
                </mxCell>
                <mxCell id="e92-0lLkvxFAv3cz48rX-20" style="edgeStyle=orthogonalEdgeStyle;rounded=0;orthogonalLoop=1;jettySize=auto;html=1;entryX=0.1;entryY=0.5;entryDx=0;entryDy=0;entryPerimeter=0;" parent="1" source="e92-0lLkvxFAv3cz48rX-5" target="e92-0lLkvxFAv3cz48rX-17" edge="1">
                    <mxGeometry relative="1" as="geometry"/>
                </mxCell>
            </root>
        </mxGraphModel>
    </diagram>
    <diagram id="9eq1rCMrKc-isftwen3J" name="02 - neds">
        <mxGraphModel dx="562" dy="346" grid="1" gridSize="10" guides="1" tooltips="1" connect="1" arrows="1" fold="1" page="1" pageScale="1" pageWidth="1920" pageHeight="1200" math="0" shadow="0">
            <root>
                <mxCell id="bGWXkVqsTbLGNvJh9SZ7-0"/>
                <mxCell id="bGWXkVqsTbLGNvJh9SZ7-1" parent="bGWXkVqsTbLGNvJh9SZ7-0"/>
                <mxCell id="bGWXkVqsTbLGNvJh9SZ7-2" value="GET /reports" style="rounded=0;whiteSpace=wrap;html=1;fontSize=11;" vertex="1" parent="bGWXkVqsTbLGNvJh9SZ7-1">
                    <mxGeometry x="440" y="280" width="150" height="30" as="geometry"/>
                </mxCell>
                <mxCell id="bGWXkVqsTbLGNvJh9SZ7-3" value="QS - make, model, year, mileage, longitude, latitude" style="rounded=0;whiteSpace=wrap;html=1;fontSize=11;" vertex="1" parent="bGWXkVqsTbLGNvJh9SZ7-1">
                    <mxGeometry x="600" y="280" width="150" height="30" as="geometry"/>
                </mxCell>
                <mxCell id="bGWXkVqsTbLGNvJh9SZ7-4" value="Get an estimate for the cars value" style="rounded=0;whiteSpace=wrap;html=1;fontSize=11;" vertex="1" parent="bGWXkVqsTbLGNvJh9SZ7-1">
                    <mxGeometry x="760" y="280" width="150" height="30" as="geometry"/>
                </mxCell>
                <mxCell id="bGWXkVqsTbLGNvJh9SZ7-5" value="POST /reports" style="rounded=0;whiteSpace=wrap;html=1;fontSize=11;" vertex="1" parent="bGWXkVqsTbLGNvJh9SZ7-1">
                    <mxGeometry x="440" y="400" width="150" height="30" as="geometry"/>
                </mxCell>
                <mxCell id="bGWXkVqsTbLGNvJh9SZ7-6" value="Body - { make, model, year, mileage, longitude, latitude, price }" style="rounded=0;whiteSpace=wrap;html=1;fontSize=9;" vertex="1" parent="bGWXkVqsTbLGNvJh9SZ7-1">
                    <mxGeometry x="600" y="400" width="150" height="30" as="geometry"/>
                </mxCell>
                <mxCell id="bGWXkVqsTbLGNvJh9SZ7-7" value="Report how much a vehicle sold for" style="rounded=0;whiteSpace=wrap;html=1;fontSize=11;" vertex="1" parent="bGWXkVqsTbLGNvJh9SZ7-1">
                    <mxGeometry x="760" y="400" width="150" height="30" as="geometry"/>
                </mxCell>
                <mxCell id="bGWXkVqsTbLGNvJh9SZ7-8" value="PATCH /reports/:id" style="rounded=0;whiteSpace=wrap;html=1;fontSize=11;" vertex="1" parent="bGWXkVqsTbLGNvJh9SZ7-1">
                    <mxGeometry x="440" y="520" width="150" height="30" as="geometry"/>
                </mxCell>
                <mxCell id="bGWXkVqsTbLGNvJh9SZ7-9" value="Body - { approved }" style="rounded=0;whiteSpace=wrap;html=1;fontSize=11;" vertex="1" parent="bGWXkVqsTbLGNvJh9SZ7-1">
                    <mxGeometry x="600" y="520" width="150" height="30" as="geometry"/>
                </mxCell>
                <mxCell id="bGWXkVqsTbLGNvJh9SZ7-10" value="Approve or reject a report submitted by a user" style="rounded=0;whiteSpace=wrap;html=1;fontSize=11;" vertex="1" parent="bGWXkVqsTbLGNvJh9SZ7-1">
                    <mxGeometry x="760" y="520" width="150" height="30" as="geometry"/>
                </mxCell>
                <mxCell id="bGWXkVqsTbLGNvJh9SZ7-11" value="Need a fancy algorithm to compute the estimate" style="rounded=0;whiteSpace=wrap;html=1;fontStyle=3;fillColor=#f8cecc;strokeColor=#b85450;" vertex="1" parent="bGWXkVqsTbLGNvJh9SZ7-1">
                    <mxGeometry x="440" y="320" width="470" height="30" as="geometry"/>
                </mxCell>
                <mxCell id="bGWXkVqsTbLGNvJh9SZ7-12" value="Need to associate the report with the user creating it" style="rounded=0;whiteSpace=wrap;html=1;fontStyle=3;fillColor=#f8cecc;strokeColor=#b85450;" vertex="1" parent="bGWXkVqsTbLGNvJh9SZ7-1">
                    <mxGeometry x="440" y="440" width="470" height="30" as="geometry"/>
                </mxCell>
                <mxCell id="bGWXkVqsTbLGNvJh9SZ7-13" value="Need to add in the concept of 'admin' users + authorization logic" style="rounded=0;whiteSpace=wrap;html=1;fontStyle=3;fillColor=#f8cecc;strokeColor=#b85450;" vertex="1" parent="bGWXkVqsTbLGNvJh9SZ7-1">
                    <mxGeometry x="440" y="560" width="470" height="30" as="geometry"/>
                </mxCell>
            </root>
        </mxGraphModel>
    </diagram>
    <diagram id="sDzbOlyjaC9lkXxN3er7" name="05 - relationships">
        <mxGraphModel dx="391" dy="241" grid="1" gridSize="10" guides="1" tooltips="1" connect="1" arrows="1" fold="1" page="1" pageScale="1" pageWidth="1920" pageHeight="1200" math="0" shadow="0">
            <root>
                <mxCell id="GyqArmyYpU6GTFHvycwW-0"/>
                <mxCell id="GyqArmyYpU6GTFHvycwW-1" parent="GyqArmyYpU6GTFHvycwW-0"/>
                <mxCell id="GyqArmyYpU6GTFHvycwW-2" value="SQL Relationships" style="rounded=0;whiteSpace=wrap;html=1;fontSize=20;fontStyle=1;fillColor=#dae8fc;strokeColor=#6c8ebf;" vertex="1" parent="GyqArmyYpU6GTFHvycwW-1">
                    <mxGeometry x="560" y="320" width="300" height="50" as="geometry"/>
                </mxCell>
                <mxCell id="GyqArmyYpU6GTFHvycwW-3" value="One-to-One" style="rounded=0;whiteSpace=wrap;html=1;fontSize=13;fontStyle=0;" vertex="1" parent="GyqArmyYpU6GTFHvycwW-1">
                    <mxGeometry x="560" y="380" width="300" height="30" as="geometry"/>
                </mxCell>
                <mxCell id="GyqArmyYpU6GTFHvycwW-4" value="One-to-Many ///&amp;nbsp; Many-to-One" style="rounded=0;whiteSpace=wrap;html=1;fontSize=13;fontStyle=0;" vertex="1" parent="GyqArmyYpU6GTFHvycwW-1">
                    <mxGeometry x="560" y="420" width="300" height="30" as="geometry"/>
                </mxCell>
                <mxCell id="GyqArmyYpU6GTFHvycwW-5" value="Many-to-Many" style="rounded=0;whiteSpace=wrap;html=1;fontSize=13;fontStyle=0;" vertex="1" parent="GyqArmyYpU6GTFHvycwW-1">
                    <mxGeometry x="560" y="460" width="300" height="30" as="geometry"/>
                </mxCell>
            </root>
        </mxGraphModel>
    </diagram>
    <diagram id="YYOCet21HVT62fKo_3sy" name="10 - report">
        <mxGraphModel dx="562" dy="346" grid="1" gridSize="10" guides="1" tooltips="1" connect="1" arrows="1" fold="1" page="1" pageScale="1" pageWidth="1920" pageHeight="1200" math="0" shadow="0">
            <root>
                <mxCell id="D4k23kaGkn6BJrnXzRIH-0"/>
                <mxCell id="D4k23kaGkn6BJrnXzRIH-1" parent="D4k23kaGkn6BJrnXzRIH-0"/>
                <mxCell id="v8z80gweH9gGIUfgVIA9-2" style="edgeStyle=orthogonalEdgeStyle;rounded=0;orthogonalLoop=1;jettySize=auto;html=1;exitX=1;exitY=0.5;exitDx=0;exitDy=0;startArrow=none;startFill=0;strokeWidth=1;fontSize=12;" edge="1" parent="D4k23kaGkn6BJrnXzRIH-1" source="v8z80gweH9gGIUfgVIA9-1">
                    <mxGeometry relative="1" as="geometry">
                        <mxPoint x="950" y="440" as="targetPoint"/>
                    </mxGeometry>
                </mxCell>
                <mxCell id="v8z80gweH9gGIUfgVIA9-1" value="" style="rounded=0;whiteSpace=wrap;html=1;fontSize=12;fillColor=#f5f5f5;strokeColor=#666666;fontColor=#333333;" vertex="1" parent="D4k23kaGkn6BJrnXzRIH-1">
                    <mxGeometry x="530" y="340" width="330" height="200" as="geometry"/>
                </mxCell>
                <mxCell id="D4k23kaGkn6BJrnXzRIH-2" value="Report Entity Instance" style="rounded=0;whiteSpace=wrap;html=1;fontSize=17;fontStyle=1;fillColor=#dae8fc;strokeColor=#6c8ebf;" vertex="1" parent="D4k23kaGkn6BJrnXzRIH-1">
                    <mxGeometry x="540" y="350" width="310" height="40" as="geometry"/>
                </mxCell>
                <mxCell id="D4k23kaGkn6BJrnXzRIH-5" style="edgeStyle=orthogonalEdgeStyle;rounded=0;orthogonalLoop=1;jettySize=auto;html=1;exitX=1;exitY=0.5;exitDx=0;exitDy=0;entryX=0;entryY=0.5;entryDx=0;entryDy=0;startArrow=none;startFill=0;strokeWidth=1;fontSize=17;" edge="1" parent="D4k23kaGkn6BJrnXzRIH-1" source="D4k23kaGkn6BJrnXzRIH-3" target="D4k23kaGkn6BJrnXzRIH-4">
                    <mxGeometry relative="1" as="geometry"/>
                </mxCell>
                <mxCell id="D4k23kaGkn6BJrnXzRIH-3" value="price" style="rounded=0;whiteSpace=wrap;html=1;fontSize=17;" vertex="1" parent="D4k23kaGkn6BJrnXzRIH-1">
                    <mxGeometry x="540" y="400" width="120" height="30" as="geometry"/>
                </mxCell>
                <mxCell id="D4k23kaGkn6BJrnXzRIH-4" value="40000" style="rounded=0;whiteSpace=wrap;html=1;fontSize=17;" vertex="1" parent="D4k23kaGkn6BJrnXzRIH-1">
                    <mxGeometry x="680" y="400" width="170" height="30" as="geometry"/>
                </mxCell>
                <mxCell id="D4k23kaGkn6BJrnXzRIH-6" style="edgeStyle=orthogonalEdgeStyle;rounded=0;orthogonalLoop=1;jettySize=auto;html=1;exitX=1;exitY=0.5;exitDx=0;exitDy=0;entryX=0;entryY=0.5;entryDx=0;entryDy=0;startArrow=none;startFill=0;strokeWidth=1;fontSize=17;" edge="1" parent="D4k23kaGkn6BJrnXzRIH-1" source="D4k23kaGkn6BJrnXzRIH-7" target="D4k23kaGkn6BJrnXzRIH-8">
                    <mxGeometry relative="1" as="geometry"/>
                </mxCell>
                <mxCell id="D4k23kaGkn6BJrnXzRIH-7" value="...." style="rounded=0;whiteSpace=wrap;html=1;fontSize=17;" vertex="1" parent="D4k23kaGkn6BJrnXzRIH-1">
                    <mxGeometry x="540" y="440" width="120" height="30" as="geometry"/>
                </mxCell>
                <mxCell id="D4k23kaGkn6BJrnXzRIH-8" value="...." style="rounded=0;whiteSpace=wrap;html=1;fontSize=17;" vertex="1" parent="D4k23kaGkn6BJrnXzRIH-1">
                    <mxGeometry x="680" y="440" width="170" height="30" as="geometry"/>
                </mxCell>
                <mxCell id="D4k23kaGkn6BJrnXzRIH-9" style="edgeStyle=orthogonalEdgeStyle;rounded=0;orthogonalLoop=1;jettySize=auto;html=1;exitX=1;exitY=0.5;exitDx=0;exitDy=0;entryX=0;entryY=0.5;entryDx=0;entryDy=0;startArrow=none;startFill=0;strokeWidth=1;fontSize=17;" edge="1" parent="D4k23kaGkn6BJrnXzRIH-1" source="D4k23kaGkn6BJrnXzRIH-10" target="D4k23kaGkn6BJrnXzRIH-11">
                    <mxGeometry relative="1" as="geometry"/>
                </mxCell>
                <mxCell id="D4k23kaGkn6BJrnXzRIH-10" value="user" style="rounded=0;whiteSpace=wrap;html=1;fontSize=17;" vertex="1" parent="D4k23kaGkn6BJrnXzRIH-1">
                    <mxGeometry x="540" y="480" width="120" height="30" as="geometry"/>
                </mxCell>
                <mxCell id="D4k23kaGkn6BJrnXzRIH-11" value="User Entity Instance" style="rounded=0;whiteSpace=wrap;html=1;fontSize=17;" vertex="1" parent="D4k23kaGkn6BJrnXzRIH-1">
                    <mxGeometry x="680" y="480" width="170" height="30" as="geometry"/>
                </mxCell>
                <mxCell id="v8z80gweH9gGIUfgVIA9-0" value="{ id: 1, email: 'a@a.com' }" style="rounded=0;whiteSpace=wrap;html=1;fontSize=12;fontStyle=2" vertex="1" parent="D4k23kaGkn6BJrnXzRIH-1">
                    <mxGeometry x="680" y="510" width="170" height="20" as="geometry"/>
                </mxCell>
                <mxCell id="v8z80gweH9gGIUfgVIA9-4" value="{ price: 40000, userId: 1 }" style="rounded=0;whiteSpace=wrap;html=1;fontSize=18;fillColor=#f5f5f5;strokeColor=#666666;fontColor=#333333;fontStyle=3" vertex="1" parent="D4k23kaGkn6BJrnXzRIH-1">
                    <mxGeometry x="950" y="392.5" width="240" height="95" as="geometry"/>
                </mxCell>
                <mxCell id="v8z80gweH9gGIUfgVIA9-5" value="SAVE" style="rounded=0;whiteSpace=wrap;html=1;fontSize=18;fillColor=#f8cecc;strokeColor=#b85450;" vertex="1" parent="D4k23kaGkn6BJrnXzRIH-1">
                    <mxGeometry x="870" y="410" width="60" height="30" as="geometry"/>
                </mxCell>
            </root>
        </mxGraphModel>
    </diagram>
    <diagram id="AuAnIPF8-wa5H2_Nbb6v" name="12 - feature">
        <mxGraphModel dx="469" dy="289" grid="1" gridSize="10" guides="1" tooltips="1" connect="1" arrows="1" fold="1" page="1" pageScale="1" pageWidth="1920" pageHeight="1200" math="0" shadow="0">
            <root>
                <mxCell id="s81uW22WVLdTznnhKde4-0"/>
                <mxCell id="s81uW22WVLdTznnhKde4-1" parent="s81uW22WVLdTznnhKde4-0"/>
                <mxCell id="s81uW22WVLdTznnhKde4-2" value="Associate a user with the reports they create" style="rounded=0;whiteSpace=wrap;html=1;fontSize=18;fontStyle=1;fillColor=#dae8fc;strokeColor=#6c8ebf;" vertex="1" parent="s81uW22WVLdTznnhKde4-1">
                    <mxGeometry x="590" y="370" width="320" height="80" as="geometry"/>
                </mxCell>
                <mxCell id="s81uW22WVLdTznnhKde4-3" value="Additional Feature" style="text;html=1;strokeColor=none;fillColor=none;align=center;verticalAlign=middle;whiteSpace=wrap;rounded=0;fontSize=18;fontStyle=2" vertex="1" parent="s81uW22WVLdTznnhKde4-1">
                    <mxGeometry x="675" y="460" width="150" height="20" as="geometry"/>
                </mxCell>
            </root>
        </mxGraphModel>
    </diagram>
    <diagram id="ON-P-qyORVPTkV1cWrGF" name="01 - users">
        <mxGraphModel dx="670" dy="412" grid="1" gridSize="10" guides="1" tooltips="1" connect="1" arrows="1" fold="1" page="1" pageScale="1" pageWidth="1920" pageHeight="1200" math="0" shadow="0">
            <root>
                <mxCell id="Zryhz4WSI1jFPc3SwURa-0"/>
                <mxCell id="Zryhz4WSI1jFPc3SwURa-1" parent="Zryhz4WSI1jFPc3SwURa-0"/>
                <mxCell id="G3kLf_nWe1GX4CshRZwX-0" value="User&lt;br&gt;id = 1" style="rounded=0;whiteSpace=wrap;html=1;fontSize=19;fillColor=#dae8fc;strokeColor=#6c8ebf;fontStyle=1" vertex="1" parent="Zryhz4WSI1jFPc3SwURa-1">
                    <mxGeometry x="470" y="320" width="120" height="60" as="geometry"/>
                </mxCell>
                <mxCell id="G3kLf_nWe1GX4CshRZwX-1" value="Report&lt;br&gt;id = 1" style="rounded=0;whiteSpace=wrap;html=1;fontSize=19;fillColor=#d5e8d4;strokeColor=#82b366;fontStyle=1" vertex="1" parent="Zryhz4WSI1jFPc3SwURa-1">
                    <mxGeometry x="670" y="250" width="120" height="60" as="geometry"/>
                </mxCell>
                <mxCell id="G3kLf_nWe1GX4CshRZwX-2" value="Report&lt;br&gt;id = 2" style="rounded=0;whiteSpace=wrap;html=1;fontSize=19;fillColor=#d5e8d4;strokeColor=#82b366;fontStyle=1" vertex="1" parent="Zryhz4WSI1jFPc3SwURa-1">
                    <mxGeometry x="670" y="320" width="120" height="60" as="geometry"/>
                </mxCell>
                <mxCell id="G3kLf_nWe1GX4CshRZwX-3" value="Report&lt;br&gt;id = 3" style="rounded=0;whiteSpace=wrap;html=1;fontSize=19;fillColor=#d5e8d4;strokeColor=#82b366;fontStyle=1" vertex="1" parent="Zryhz4WSI1jFPc3SwURa-1">
                    <mxGeometry x="670" y="390" width="120" height="60" as="geometry"/>
                </mxCell>
                <mxCell id="G3kLf_nWe1GX4CshRZwX-4" value="" style="shape=curlyBracket;whiteSpace=wrap;html=1;rounded=1;fontSize=19;" vertex="1" parent="Zryhz4WSI1jFPc3SwURa-1">
                    <mxGeometry x="590" y="250" width="70" height="200" as="geometry"/>
                </mxCell>
                <mxCell id="G3kLf_nWe1GX4CshRZwX-9" value="User&lt;br&gt;id = 2" style="rounded=0;whiteSpace=wrap;html=1;fontSize=19;fillColor=#dae8fc;strokeColor=#6c8ebf;fontStyle=1" vertex="1" parent="Zryhz4WSI1jFPc3SwURa-1">
                    <mxGeometry x="470" y="495" width="120" height="60" as="geometry"/>
                </mxCell>
                <mxCell id="G3kLf_nWe1GX4CshRZwX-10" value="Report&lt;br&gt;id = 4" style="rounded=0;whiteSpace=wrap;html=1;fontSize=19;fillColor=#fff2cc;strokeColor=#d6b656;fontStyle=1" vertex="1" parent="Zryhz4WSI1jFPc3SwURa-1">
                    <mxGeometry x="670" y="460" width="120" height="60" as="geometry"/>
                </mxCell>
                <mxCell id="G3kLf_nWe1GX4CshRZwX-11" value="Report&lt;br&gt;id = 5" style="rounded=0;whiteSpace=wrap;html=1;fontSize=19;fillColor=#fff2cc;strokeColor=#d6b656;fontStyle=1" vertex="1" parent="Zryhz4WSI1jFPc3SwURa-1">
                    <mxGeometry x="670" y="530" width="120" height="60" as="geometry"/>
                </mxCell>
                <mxCell id="G3kLf_nWe1GX4CshRZwX-13" value="" style="shape=curlyBracket;whiteSpace=wrap;html=1;rounded=1;fontSize=19;" vertex="1" parent="Zryhz4WSI1jFPc3SwURa-1">
                    <mxGeometry x="590" y="460" width="70" height="130" as="geometry"/>
                </mxCell>
            </root>
        </mxGraphModel>
    </diagram>
    <diagram id="-0APeyNdDwiuH2CMI8BX" name="13 - sec">
        <mxGraphModel dx="469" dy="289" grid="1" gridSize="10" guides="1" tooltips="1" connect="1" arrows="1" fold="1" page="1" pageScale="1" pageWidth="1920" pageHeight="1200" math="0" shadow="0">
            <root>
                <mxCell id="zpexAM1PGzr8zVtaCyKB-0"/>
                <mxCell id="zpexAM1PGzr8zVtaCyKB-1" parent="zpexAM1PGzr8zVtaCyKB-0"/>
                <mxCell id="zpexAM1PGzr8zVtaCyKB-2" value="Relating one record with another" style="rounded=0;whiteSpace=wrap;html=1;fontSize=15;" vertex="1" parent="zpexAM1PGzr8zVtaCyKB-1">
                    <mxGeometry x="560" y="320" width="330" height="40" as="geometry"/>
                </mxCell>
                <mxCell id="zpexAM1PGzr8zVtaCyKB-3" value="Associations" style="text;html=1;strokeColor=none;fillColor=none;align=center;verticalAlign=middle;whiteSpace=wrap;rounded=0;fontSize=20;fontStyle=1" vertex="1" parent="zpexAM1PGzr8zVtaCyKB-1">
                    <mxGeometry x="705" y="293" width="40" height="20" as="geometry"/>
                </mxCell>
                <mxCell id="zpexAM1PGzr8zVtaCyKB-4" value="Requires knowledge of...." style="rounded=0;whiteSpace=wrap;html=1;fontSize=15;" vertex="1" parent="zpexAM1PGzr8zVtaCyKB-1">
                    <mxGeometry x="560" y="370" width="330" height="40" as="geometry"/>
                </mxCell>
                <mxCell id="zpexAM1PGzr8zVtaCyKB-5" value="Security" style="rounded=0;whiteSpace=wrap;html=1;fontSize=15;fontStyle=2;fillColor=#f5f5f5;strokeColor=#666666;fontColor=#333333;" vertex="1" parent="zpexAM1PGzr8zVtaCyKB-1">
                    <mxGeometry x="560" y="420" width="160" height="40" as="geometry"/>
                </mxCell>
                <mxCell id="zpexAM1PGzr8zVtaCyKB-6" value="SQL" style="rounded=0;whiteSpace=wrap;html=1;fontSize=15;fontStyle=2;fillColor=#f5f5f5;strokeColor=#666666;fontColor=#333333;" vertex="1" parent="zpexAM1PGzr8zVtaCyKB-1">
                    <mxGeometry x="730" y="420" width="160" height="40" as="geometry"/>
                </mxCell>
                <mxCell id="zpexAM1PGzr8zVtaCyKB-7" value="REST conventions" style="rounded=0;whiteSpace=wrap;html=1;fontSize=15;fontStyle=2;fillColor=#f5f5f5;strokeColor=#666666;fontColor=#333333;" vertex="1" parent="zpexAM1PGzr8zVtaCyKB-1">
                    <mxGeometry x="560" y="470" width="160" height="40" as="geometry"/>
                </mxCell>
                <mxCell id="zpexAM1PGzr8zVtaCyKB-8" value="TypeORM" style="rounded=0;whiteSpace=wrap;html=1;fontSize=15;fontStyle=2;fillColor=#f5f5f5;strokeColor=#666666;fontColor=#333333;" vertex="1" parent="zpexAM1PGzr8zVtaCyKB-1">
                    <mxGeometry x="730" y="470" width="160" height="40" as="geometry"/>
                </mxCell>
                <mxCell id="zpexAM1PGzr8zVtaCyKB-9" value="Nest" style="rounded=0;whiteSpace=wrap;html=1;fontSize=15;fontStyle=2;fillColor=#f5f5f5;strokeColor=#666666;fontColor=#333333;" vertex="1" parent="zpexAM1PGzr8zVtaCyKB-1">
                    <mxGeometry x="560" y="520" width="160" height="40" as="geometry"/>
                </mxCell>
                <mxCell id="zpexAM1PGzr8zVtaCyKB-10" value="Class-Transformer" style="rounded=0;whiteSpace=wrap;html=1;fontSize=15;fontStyle=2;fillColor=#f5f5f5;strokeColor=#666666;fontColor=#333333;" vertex="1" parent="zpexAM1PGzr8zVtaCyKB-1">
                    <mxGeometry x="730" y="520" width="160" height="40" as="geometry"/>
                </mxCell>
            </root>
        </mxGraphModel>
    </diagram>
    <diagram id="vY1CjWPsOo0Q5WLBgrtA" name="03 - fkey">
        <mxGraphModel dx="562" dy="346" grid="1" gridSize="10" guides="1" tooltips="1" connect="1" arrows="1" fold="1" page="1" pageScale="1" pageWidth="1920" pageHeight="1200" math="0" shadow="0">
            <root>
                <mxCell id="qvSrsBqiUF0bKttKVIXJ-0"/>
                <mxCell id="qvSrsBqiUF0bKttKVIXJ-1" parent="qvSrsBqiUF0bKttKVIXJ-0"/>
                <mxCell id="qvSrsBqiUF0bKttKVIXJ-2" value="SQLite Database" style="rounded=0;whiteSpace=wrap;html=1;fillColor=#dae8fc;strokeColor=#6c8ebf;fontStyle=1;fontSize=15;" vertex="1" parent="qvSrsBqiUF0bKttKVIXJ-1">
                    <mxGeometry x="480" y="300" width="480" height="30" as="geometry"/>
                </mxCell>
                <mxCell id="qvSrsBqiUF0bKttKVIXJ-3" value="" style="rounded=0;whiteSpace=wrap;html=1;fillColor=#dae8fc;strokeColor=#6c8ebf;fontStyle=1;fontSize=15;" vertex="1" parent="qvSrsBqiUF0bKttKVIXJ-1">
                    <mxGeometry x="480" y="330" width="480" height="160" as="geometry"/>
                </mxCell>
                <mxCell id="qvSrsBqiUF0bKttKVIXJ-5" value="Users Table" style="rounded=0;whiteSpace=wrap;html=1;strokeWidth=1;fontSize=17;fillColor=#d5e8d4;strokeColor=#82b366;" vertex="1" parent="qvSrsBqiUF0bKttKVIXJ-1">
                    <mxGeometry x="740" y="345" width="210" height="30" as="geometry"/>
                </mxCell>
                <mxCell id="qvSrsBqiUF0bKttKVIXJ-6" value="id" style="rounded=0;whiteSpace=wrap;html=1;strokeWidth=1;fontSize=12;fontStyle=2;fillColor=#f5f5f5;strokeColor=#666666;fontColor=#333333;" vertex="1" parent="qvSrsBqiUF0bKttKVIXJ-1">
                    <mxGeometry x="740" y="375" width="40" height="20" as="geometry"/>
                </mxCell>
                <mxCell id="qvSrsBqiUF0bKttKVIXJ-7" value="email" style="rounded=0;whiteSpace=wrap;html=1;strokeWidth=1;fontSize=12;fontStyle=2;fillColor=#f5f5f5;strokeColor=#666666;fontColor=#333333;" vertex="1" parent="qvSrsBqiUF0bKttKVIXJ-1">
                    <mxGeometry x="780" y="375" width="90" height="20" as="geometry"/>
                </mxCell>
                <mxCell id="qvSrsBqiUF0bKttKVIXJ-8" value="password" style="rounded=0;whiteSpace=wrap;html=1;strokeWidth=1;fontSize=12;fontStyle=2;fillColor=#f5f5f5;strokeColor=#666666;fontColor=#333333;" vertex="1" parent="qvSrsBqiUF0bKttKVIXJ-1">
                    <mxGeometry x="870" y="375" width="80" height="20" as="geometry"/>
                </mxCell>
                <mxCell id="qvSrsBqiUF0bKttKVIXJ-9" value="1" style="rounded=0;whiteSpace=wrap;html=1;strokeWidth=1;fontSize=12;fontStyle=0;" vertex="1" parent="qvSrsBqiUF0bKttKVIXJ-1">
                    <mxGeometry x="740" y="395" width="40" height="20" as="geometry"/>
                </mxCell>
                <mxCell id="qvSrsBqiUF0bKttKVIXJ-10" value="asdf@asdf.com" style="rounded=0;whiteSpace=wrap;html=1;strokeWidth=1;fontSize=11;fontStyle=0;" vertex="1" parent="qvSrsBqiUF0bKttKVIXJ-1">
                    <mxGeometry x="780" y="395" width="90" height="20" as="geometry"/>
                </mxCell>
                <mxCell id="qvSrsBqiUF0bKttKVIXJ-11" value="asdfgaa" style="rounded=0;whiteSpace=wrap;html=1;strokeWidth=1;fontSize=11;fontStyle=0;" vertex="1" parent="qvSrsBqiUF0bKttKVIXJ-1">
                    <mxGeometry x="870" y="395" width="80" height="20" as="geometry"/>
                </mxCell>
                <mxCell id="qvSrsBqiUF0bKttKVIXJ-21" value="Reports Table" style="rounded=0;whiteSpace=wrap;html=1;strokeWidth=1;fontSize=17;fillColor=#d5e8d4;strokeColor=#82b366;" vertex="1" parent="qvSrsBqiUF0bKttKVIXJ-1">
                    <mxGeometry x="490" y="345" width="210" height="30" as="geometry"/>
                </mxCell>
                <mxCell id="qvSrsBqiUF0bKttKVIXJ-22" value="id" style="rounded=0;whiteSpace=wrap;html=1;strokeWidth=1;fontSize=12;fontStyle=2;fillColor=#f5f5f5;strokeColor=#666666;fontColor=#333333;" vertex="1" parent="qvSrsBqiUF0bKttKVIXJ-1">
                    <mxGeometry x="490" y="375" width="40" height="20" as="geometry"/>
                </mxCell>
                <mxCell id="qvSrsBqiUF0bKttKVIXJ-23" value="make" style="rounded=0;whiteSpace=wrap;html=1;strokeWidth=1;fontSize=12;fontStyle=2;fillColor=#f5f5f5;strokeColor=#666666;fontColor=#333333;" vertex="1" parent="qvSrsBqiUF0bKttKVIXJ-1">
                    <mxGeometry x="530" y="375" width="47" height="20" as="geometry"/>
                </mxCell>
                <mxCell id="qvSrsBqiUF0bKttKVIXJ-24" value="user_id" style="rounded=0;whiteSpace=wrap;html=1;strokeWidth=1;fontSize=12;fontStyle=2;fillColor=#f5f5f5;strokeColor=#666666;fontColor=#333333;" vertex="1" parent="qvSrsBqiUF0bKttKVIXJ-1">
                    <mxGeometry x="620" y="375" width="80" height="20" as="geometry"/>
                </mxCell>
                <mxCell id="qvSrsBqiUF0bKttKVIXJ-25" value="1" style="rounded=0;whiteSpace=wrap;html=1;strokeWidth=1;fontSize=12;fontStyle=0;" vertex="1" parent="qvSrsBqiUF0bKttKVIXJ-1">
                    <mxGeometry x="490" y="395" width="40" height="20" as="geometry"/>
                </mxCell>
                <mxCell id="qvSrsBqiUF0bKttKVIXJ-26" value="toyota" style="rounded=0;whiteSpace=wrap;html=1;strokeWidth=1;fontSize=9;fontStyle=0;" vertex="1" parent="qvSrsBqiUF0bKttKVIXJ-1">
                    <mxGeometry x="530" y="395" width="47" height="20" as="geometry"/>
                </mxCell>
                <mxCell id="mMdi0LtLQPU1I6xzmW1j-0" style="edgeStyle=orthogonalEdgeStyle;rounded=0;orthogonalLoop=1;jettySize=auto;html=1;exitX=1;exitY=0.5;exitDx=0;exitDy=0;entryX=0;entryY=0.5;entryDx=0;entryDy=0;startArrow=none;startFill=0;strokeWidth=1;fontSize=20;" edge="1" parent="qvSrsBqiUF0bKttKVIXJ-1" source="qvSrsBqiUF0bKttKVIXJ-27" target="qvSrsBqiUF0bKttKVIXJ-9">
                    <mxGeometry relative="1" as="geometry"/>
                </mxCell>
                <mxCell id="qvSrsBqiUF0bKttKVIXJ-27" value="1" style="rounded=0;whiteSpace=wrap;html=1;strokeWidth=1;fontSize=11;fontStyle=0;" vertex="1" parent="qvSrsBqiUF0bKttKVIXJ-1">
                    <mxGeometry x="620" y="395" width="80" height="20" as="geometry"/>
                </mxCell>
                <mxCell id="qvSrsBqiUF0bKttKVIXJ-28" value="2" style="rounded=0;whiteSpace=wrap;html=1;strokeWidth=1;fontSize=12;fontStyle=0;" vertex="1" parent="qvSrsBqiUF0bKttKVIXJ-1">
                    <mxGeometry x="490" y="415" width="40" height="20" as="geometry"/>
                </mxCell>
                <mxCell id="qvSrsBqiUF0bKttKVIXJ-29" value="ford" style="rounded=0;whiteSpace=wrap;html=1;strokeWidth=1;fontSize=9;fontStyle=0;" vertex="1" parent="qvSrsBqiUF0bKttKVIXJ-1">
                    <mxGeometry x="530" y="415" width="47" height="20" as="geometry"/>
                </mxCell>
                <mxCell id="mMdi0LtLQPU1I6xzmW1j-1" style="edgeStyle=orthogonalEdgeStyle;rounded=0;orthogonalLoop=1;jettySize=auto;html=1;exitX=1;exitY=0.5;exitDx=0;exitDy=0;entryX=0;entryY=0.5;entryDx=0;entryDy=0;startArrow=none;startFill=0;strokeWidth=1;fontSize=20;" edge="1" parent="qvSrsBqiUF0bKttKVIXJ-1" source="qvSrsBqiUF0bKttKVIXJ-30" target="qvSrsBqiUF0bKttKVIXJ-9">
                    <mxGeometry relative="1" as="geometry"/>
                </mxCell>
                <mxCell id="qvSrsBqiUF0bKttKVIXJ-30" value="1" style="rounded=0;whiteSpace=wrap;html=1;strokeWidth=1;fontSize=11;fontStyle=0;" vertex="1" parent="qvSrsBqiUF0bKttKVIXJ-1">
                    <mxGeometry x="620" y="415" width="80" height="20" as="geometry"/>
                </mxCell>
                <mxCell id="qvSrsBqiUF0bKttKVIXJ-31" value="" style="rounded=0;whiteSpace=wrap;html=1;strokeWidth=1;fontSize=12;fontStyle=0;" vertex="1" parent="qvSrsBqiUF0bKttKVIXJ-1">
                    <mxGeometry x="490" y="455" width="40" height="20" as="geometry"/>
                </mxCell>
                <mxCell id="qvSrsBqiUF0bKttKVIXJ-32" value="" style="rounded=0;whiteSpace=wrap;html=1;strokeWidth=1;fontSize=9;fontStyle=0;" vertex="1" parent="qvSrsBqiUF0bKttKVIXJ-1">
                    <mxGeometry x="530" y="455" width="47" height="20" as="geometry"/>
                </mxCell>
                <mxCell id="qvSrsBqiUF0bKttKVIXJ-33" value="" style="rounded=0;whiteSpace=wrap;html=1;strokeWidth=1;fontSize=11;fontStyle=0;" vertex="1" parent="qvSrsBqiUF0bKttKVIXJ-1">
                    <mxGeometry x="620" y="455" width="80" height="20" as="geometry"/>
                </mxCell>
                <mxCell id="qvSrsBqiUF0bKttKVIXJ-34" value="3" style="rounded=0;whiteSpace=wrap;html=1;strokeWidth=1;fontSize=12;fontStyle=0;" vertex="1" parent="qvSrsBqiUF0bKttKVIXJ-1">
                    <mxGeometry x="490" y="435" width="40" height="20" as="geometry"/>
                </mxCell>
                <mxCell id="qvSrsBqiUF0bKttKVIXJ-35" value="asdf" style="rounded=0;whiteSpace=wrap;html=1;strokeWidth=1;fontSize=9;fontStyle=0;" vertex="1" parent="qvSrsBqiUF0bKttKVIXJ-1">
                    <mxGeometry x="530" y="435" width="47" height="20" as="geometry"/>
                </mxCell>
                <mxCell id="qvSrsBqiUF0bKttKVIXJ-36" value="23455" style="rounded=0;whiteSpace=wrap;html=1;strokeWidth=1;fontSize=11;fontStyle=0;" vertex="1" parent="qvSrsBqiUF0bKttKVIXJ-1">
                    <mxGeometry x="620" y="435" width="80" height="20" as="geometry"/>
                </mxCell>
                <mxCell id="qvSrsBqiUF0bKttKVIXJ-37" value="..." style="rounded=0;whiteSpace=wrap;html=1;strokeWidth=1;fontSize=12;fontStyle=2;fillColor=#f5f5f5;strokeColor=#666666;fontColor=#333333;" vertex="1" parent="qvSrsBqiUF0bKttKVIXJ-1">
                    <mxGeometry x="577" y="375" width="43" height="20" as="geometry"/>
                </mxCell>
                <mxCell id="qvSrsBqiUF0bKttKVIXJ-38" value="asdfasdf" style="rounded=0;whiteSpace=wrap;html=1;strokeWidth=1;fontSize=11;fontStyle=0;" vertex="1" parent="qvSrsBqiUF0bKttKVIXJ-1">
                    <mxGeometry x="577" y="395" width="43" height="20" as="geometry"/>
                </mxCell>
                <mxCell id="qvSrsBqiUF0bKttKVIXJ-39" value="sldkjf" style="rounded=0;whiteSpace=wrap;html=1;strokeWidth=1;fontSize=11;fontStyle=0;" vertex="1" parent="qvSrsBqiUF0bKttKVIXJ-1">
                    <mxGeometry x="577" y="415" width="43" height="20" as="geometry"/>
                </mxCell>
                <mxCell id="qvSrsBqiUF0bKttKVIXJ-40" value="" style="rounded=0;whiteSpace=wrap;html=1;strokeWidth=1;fontSize=11;fontStyle=0;" vertex="1" parent="qvSrsBqiUF0bKttKVIXJ-1">
                    <mxGeometry x="577" y="455" width="43" height="20" as="geometry"/>
                </mxCell>
                <mxCell id="qvSrsBqiUF0bKttKVIXJ-41" value="asdf" style="rounded=0;whiteSpace=wrap;html=1;strokeWidth=1;fontSize=11;fontStyle=0;" vertex="1" parent="qvSrsBqiUF0bKttKVIXJ-1">
                    <mxGeometry x="577" y="435" width="43" height="20" as="geometry"/>
                </mxCell>
                <mxCell id="bzJ8AXTGZL6EYXglTImf-0" value="This is what we need in the database" style="rounded=0;whiteSpace=wrap;html=1;strokeWidth=1;fontSize=17;fillColor=#f8cecc;strokeColor=#b85450;fontStyle=1" vertex="1" parent="qvSrsBqiUF0bKttKVIXJ-1">
                    <mxGeometry x="552.5" y="510" width="335" height="50" as="geometry"/>
                </mxCell>
            </root>
        </mxGraphModel>
    </diagram>
    <diagram id="jSwobo49rvuiqA8fVQ3n" name="04 - relationships">
        <mxGraphModel dx="469" dy="289" grid="1" gridSize="10" guides="1" tooltips="1" connect="1" arrows="1" fold="1" page="1" pageScale="1" pageWidth="1920" pageHeight="1200" math="0" shadow="0">
            <root>
                <mxCell id="jk0zh6y9F2LeZFPg9-zs-0"/>
                <mxCell id="jk0zh6y9F2LeZFPg9-zs-1" parent="jk0zh6y9F2LeZFPg9-zs-0"/>
                <mxCell id="jk0zh6y9F2LeZFPg9-zs-2" value="One-To-One Relationships" style="rounded=0;whiteSpace=wrap;html=1;fontSize=20;fillColor=#dae8fc;strokeColor=#6c8ebf;fontStyle=1" vertex="1" parent="jk0zh6y9F2LeZFPg9-zs-1">
                    <mxGeometry x="510" y="300" width="400" height="40" as="geometry"/>
                </mxCell>
                <mxCell id="jk0zh6y9F2LeZFPg9-zs-7" style="edgeStyle=orthogonalEdgeStyle;rounded=0;orthogonalLoop=1;jettySize=auto;html=1;exitX=1;exitY=0.5;exitDx=0;exitDy=0;fontSize=20;startArrow=classic;startFill=1;" edge="1" parent="jk0zh6y9F2LeZFPg9-zs-1" source="jk0zh6y9F2LeZFPg9-zs-5" target="jk0zh6y9F2LeZFPg9-zs-6">
                    <mxGeometry relative="1" as="geometry"/>
                </mxCell>
                <mxCell id="jk0zh6y9F2LeZFPg9-zs-5" value="Country" style="rounded=0;whiteSpace=wrap;html=1;fontSize=20;" vertex="1" parent="jk0zh6y9F2LeZFPg9-zs-1">
                    <mxGeometry x="580" y="350" width="110" height="40" as="geometry"/>
                </mxCell>
                <mxCell id="jk0zh6y9F2LeZFPg9-zs-6" value="Capital" style="rounded=0;whiteSpace=wrap;html=1;fontSize=20;" vertex="1" parent="jk0zh6y9F2LeZFPg9-zs-1">
                    <mxGeometry x="720" y="350" width="110" height="40" as="geometry"/>
                </mxCell>
                <mxCell id="jk0zh6y9F2LeZFPg9-zs-8" style="edgeStyle=orthogonalEdgeStyle;rounded=0;orthogonalLoop=1;jettySize=auto;html=1;exitX=1;exitY=0.5;exitDx=0;exitDy=0;fontSize=20;startArrow=classic;startFill=1;" edge="1" parent="jk0zh6y9F2LeZFPg9-zs-1" source="jk0zh6y9F2LeZFPg9-zs-9" target="jk0zh6y9F2LeZFPg9-zs-10">
                    <mxGeometry relative="1" as="geometry"/>
                </mxCell>
                <mxCell id="jk0zh6y9F2LeZFPg9-zs-9" value="Car" style="rounded=0;whiteSpace=wrap;html=1;fontSize=20;" vertex="1" parent="jk0zh6y9F2LeZFPg9-zs-1">
                    <mxGeometry x="580" y="400" width="110" height="40" as="geometry"/>
                </mxCell>
                <mxCell id="jk0zh6y9F2LeZFPg9-zs-10" value="Engine" style="rounded=0;whiteSpace=wrap;html=1;fontSize=20;" vertex="1" parent="jk0zh6y9F2LeZFPg9-zs-1">
                    <mxGeometry x="720" y="400" width="110" height="40" as="geometry"/>
                </mxCell>
                <mxCell id="jk0zh6y9F2LeZFPg9-zs-11" style="edgeStyle=orthogonalEdgeStyle;rounded=0;orthogonalLoop=1;jettySize=auto;html=1;exitX=1;exitY=0.5;exitDx=0;exitDy=0;fontSize=20;startArrow=classic;startFill=1;" edge="1" parent="jk0zh6y9F2LeZFPg9-zs-1" source="jk0zh6y9F2LeZFPg9-zs-12" target="jk0zh6y9F2LeZFPg9-zs-13">
                    <mxGeometry relative="1" as="geometry"/>
                </mxCell>
                <mxCell id="jk0zh6y9F2LeZFPg9-zs-12" value="Passport" style="rounded=0;whiteSpace=wrap;html=1;fontSize=20;" vertex="1" parent="jk0zh6y9F2LeZFPg9-zs-1">
                    <mxGeometry x="580" y="450" width="110" height="40" as="geometry"/>
                </mxCell>
                <mxCell id="jk0zh6y9F2LeZFPg9-zs-13" value="Person" style="rounded=0;whiteSpace=wrap;html=1;fontSize=20;" vertex="1" parent="jk0zh6y9F2LeZFPg9-zs-1">
                    <mxGeometry x="720" y="450" width="110" height="40" as="geometry"/>
                </mxCell>
                <mxCell id="jk0zh6y9F2LeZFPg9-zs-14" style="edgeStyle=orthogonalEdgeStyle;rounded=0;orthogonalLoop=1;jettySize=auto;html=1;exitX=1;exitY=0.5;exitDx=0;exitDy=0;fontSize=20;startArrow=classic;startFill=1;" edge="1" parent="jk0zh6y9F2LeZFPg9-zs-1" source="jk0zh6y9F2LeZFPg9-zs-15" target="jk0zh6y9F2LeZFPg9-zs-16">
                    <mxGeometry relative="1" as="geometry"/>
                </mxCell>
                <mxCell id="jk0zh6y9F2LeZFPg9-zs-15" value="Person" style="rounded=0;whiteSpace=wrap;html=1;fontSize=20;" vertex="1" parent="jk0zh6y9F2LeZFPg9-zs-1">
                    <mxGeometry x="580" y="500" width="110" height="40" as="geometry"/>
                </mxCell>
                <mxCell id="jk0zh6y9F2LeZFPg9-zs-16" value="Cell Phone" style="rounded=0;whiteSpace=wrap;html=1;fontSize=20;" vertex="1" parent="jk0zh6y9F2LeZFPg9-zs-1">
                    <mxGeometry x="720" y="500" width="110" height="40" as="geometry"/>
                </mxCell>
            </root>
        </mxGraphModel>
    </diagram>
    <diagram id="HqtIq4KiD0bE1BUnrlQD" name="07 - manytoone">
        <mxGraphModel dx="485" dy="299" grid="1" gridSize="10" guides="1" tooltips="1" connect="1" arrows="1" fold="1" page="1" pageScale="1" pageWidth="1920" pageHeight="1200" math="0" shadow="0">
            <root>
                <mxCell id="R5GuzT8cUUZkMpd_puc7-0"/>
                <mxCell id="R5GuzT8cUUZkMpd_puc7-1" parent="R5GuzT8cUUZkMpd_puc7-0"/>
                <mxCell id="R5GuzT8cUUZkMpd_puc7-2" value="One-to-Many // Many-to-One" style="rounded=0;whiteSpace=wrap;html=1;fontSize=20;fillColor=#dae8fc;strokeColor=#6c8ebf;fontStyle=1" vertex="1" parent="R5GuzT8cUUZkMpd_puc7-1">
                    <mxGeometry x="510" y="300" width="400" height="40" as="geometry"/>
                </mxCell>
                <mxCell id="R5GuzT8cUUZkMpd_puc7-3" style="edgeStyle=orthogonalEdgeStyle;rounded=0;orthogonalLoop=1;jettySize=auto;html=1;exitX=1;exitY=0.5;exitDx=0;exitDy=0;fontSize=20;startArrow=classic;startFill=1;" edge="1" parent="R5GuzT8cUUZkMpd_puc7-1" source="R5GuzT8cUUZkMpd_puc7-4" target="R5GuzT8cUUZkMpd_puc7-5">
                    <mxGeometry relative="1" as="geometry"/>
                </mxCell>
                <mxCell id="R5GuzT8cUUZkMpd_puc7-4" value="Customers" style="rounded=0;whiteSpace=wrap;html=1;fontSize=20;" vertex="1" parent="R5GuzT8cUUZkMpd_puc7-1">
                    <mxGeometry x="580" y="360" width="110" height="40" as="geometry"/>
                </mxCell>
                <mxCell id="R5GuzT8cUUZkMpd_puc7-5" value="Orders" style="rounded=0;whiteSpace=wrap;html=1;fontSize=20;" vertex="1" parent="R5GuzT8cUUZkMpd_puc7-1">
                    <mxGeometry x="720" y="360" width="110" height="40" as="geometry"/>
                </mxCell>
                <mxCell id="R5GuzT8cUUZkMpd_puc7-6" style="edgeStyle=orthogonalEdgeStyle;rounded=0;orthogonalLoop=1;jettySize=auto;html=1;exitX=1;exitY=0.5;exitDx=0;exitDy=0;fontSize=20;startArrow=classic;startFill=1;" edge="1" parent="R5GuzT8cUUZkMpd_puc7-1" source="R5GuzT8cUUZkMpd_puc7-7" target="R5GuzT8cUUZkMpd_puc7-8">
                    <mxGeometry relative="1" as="geometry"/>
                </mxCell>
                <mxCell id="R5GuzT8cUUZkMpd_puc7-7" value="Car" style="rounded=0;whiteSpace=wrap;html=1;fontSize=20;" vertex="1" parent="R5GuzT8cUUZkMpd_puc7-1">
                    <mxGeometry x="580" y="410" width="110" height="40" as="geometry"/>
                </mxCell>
                <mxCell id="R5GuzT8cUUZkMpd_puc7-8" value="Parts" style="rounded=0;whiteSpace=wrap;html=1;fontSize=20;" vertex="1" parent="R5GuzT8cUUZkMpd_puc7-1">
                    <mxGeometry x="720" y="410" width="110" height="40" as="geometry"/>
                </mxCell>
                <mxCell id="R5GuzT8cUUZkMpd_puc7-9" style="edgeStyle=orthogonalEdgeStyle;rounded=0;orthogonalLoop=1;jettySize=auto;html=1;exitX=1;exitY=0.5;exitDx=0;exitDy=0;fontSize=20;startArrow=classic;startFill=1;" edge="1" parent="R5GuzT8cUUZkMpd_puc7-1" source="R5GuzT8cUUZkMpd_puc7-10" target="R5GuzT8cUUZkMpd_puc7-11">
                    <mxGeometry relative="1" as="geometry"/>
                </mxCell>
                <mxCell id="R5GuzT8cUUZkMpd_puc7-10" value="Country" style="rounded=0;whiteSpace=wrap;html=1;fontSize=20;" vertex="1" parent="R5GuzT8cUUZkMpd_puc7-1">
                    <mxGeometry x="580" y="460" width="110" height="40" as="geometry"/>
                </mxCell>
                <mxCell id="R5GuzT8cUUZkMpd_puc7-11" value="Cities" style="rounded=0;whiteSpace=wrap;html=1;fontSize=20;" vertex="1" parent="R5GuzT8cUUZkMpd_puc7-1">
                    <mxGeometry x="720" y="460" width="110" height="40" as="geometry"/>
                </mxCell>
                <mxCell id="R5GuzT8cUUZkMpd_puc7-12" style="edgeStyle=orthogonalEdgeStyle;rounded=0;orthogonalLoop=1;jettySize=auto;html=1;exitX=1;exitY=0.5;exitDx=0;exitDy=0;fontSize=20;startArrow=classic;startFill=1;" edge="1" parent="R5GuzT8cUUZkMpd_puc7-1" source="R5GuzT8cUUZkMpd_puc7-13" target="R5GuzT8cUUZkMpd_puc7-14">
                    <mxGeometry relative="1" as="geometry"/>
                </mxCell>
                <mxCell id="R5GuzT8cUUZkMpd_puc7-13" value="Continent" style="rounded=0;whiteSpace=wrap;html=1;fontSize=20;" vertex="1" parent="R5GuzT8cUUZkMpd_puc7-1">
                    <mxGeometry x="580" y="510" width="110" height="40" as="geometry"/>
                </mxCell>
                <mxCell id="R5GuzT8cUUZkMpd_puc7-14" value="Mountains" style="rounded=0;whiteSpace=wrap;html=1;fontSize=20;" vertex="1" parent="R5GuzT8cUUZkMpd_puc7-1">
                    <mxGeometry x="720" y="510" width="110" height="40" as="geometry"/>
                </mxCell>
            </root>
        </mxGraphModel>
    </diagram>
    <diagram name="08 - manytomany" id="BONBFzVBkF05LuN-1Xce">
        <mxGraphModel dx="485" dy="299" grid="1" gridSize="10" guides="1" tooltips="1" connect="1" arrows="1" fold="1" page="1" pageScale="1" pageWidth="1920" pageHeight="1200" math="0" shadow="0">
            <root>
                <mxCell id="LX5E6P-1whRSMcI1Wzi5-0"/>
                <mxCell id="LX5E6P-1whRSMcI1Wzi5-1" parent="LX5E6P-1whRSMcI1Wzi5-0"/>
                <mxCell id="LX5E6P-1whRSMcI1Wzi5-2" value="Many-to-Many" style="rounded=0;whiteSpace=wrap;html=1;fontSize=20;fillColor=#dae8fc;strokeColor=#6c8ebf;fontStyle=1" vertex="1" parent="LX5E6P-1whRSMcI1Wzi5-1">
                    <mxGeometry x="510" y="300" width="400" height="40" as="geometry"/>
                </mxCell>
                <mxCell id="LX5E6P-1whRSMcI1Wzi5-3" style="edgeStyle=orthogonalEdgeStyle;rounded=0;orthogonalLoop=1;jettySize=auto;html=1;exitX=1;exitY=0.5;exitDx=0;exitDy=0;fontSize=20;startArrow=classic;startFill=1;" edge="1" parent="LX5E6P-1whRSMcI1Wzi5-1" source="LX5E6P-1whRSMcI1Wzi5-4" target="LX5E6P-1whRSMcI1Wzi5-5">
                    <mxGeometry relative="1" as="geometry"/>
                </mxCell>
                <mxCell id="LX5E6P-1whRSMcI1Wzi5-4" value="Trains" style="rounded=0;whiteSpace=wrap;html=1;fontSize=20;" vertex="1" parent="LX5E6P-1whRSMcI1Wzi5-1">
                    <mxGeometry x="580" y="360" width="110" height="40" as="geometry"/>
                </mxCell>
                <mxCell id="LX5E6P-1whRSMcI1Wzi5-5" value="Riders" style="rounded=0;whiteSpace=wrap;html=1;fontSize=20;" vertex="1" parent="LX5E6P-1whRSMcI1Wzi5-1">
                    <mxGeometry x="720" y="360" width="110" height="40" as="geometry"/>
                </mxCell>
                <mxCell id="LX5E6P-1whRSMcI1Wzi5-6" style="edgeStyle=orthogonalEdgeStyle;rounded=0;orthogonalLoop=1;jettySize=auto;html=1;exitX=1;exitY=0.5;exitDx=0;exitDy=0;fontSize=20;startArrow=classic;startFill=1;" edge="1" parent="LX5E6P-1whRSMcI1Wzi5-1" source="LX5E6P-1whRSMcI1Wzi5-7" target="LX5E6P-1whRSMcI1Wzi5-8">
                    <mxGeometry relative="1" as="geometry"/>
                </mxCell>
                <mxCell id="LX5E6P-1whRSMcI1Wzi5-7" value="Classes" style="rounded=0;whiteSpace=wrap;html=1;fontSize=20;" vertex="1" parent="LX5E6P-1whRSMcI1Wzi5-1">
                    <mxGeometry x="580" y="410" width="110" height="40" as="geometry"/>
                </mxCell>
                <mxCell id="LX5E6P-1whRSMcI1Wzi5-8" value="Students" style="rounded=0;whiteSpace=wrap;html=1;fontSize=20;" vertex="1" parent="LX5E6P-1whRSMcI1Wzi5-1">
                    <mxGeometry x="720" y="410" width="110" height="40" as="geometry"/>
                </mxCell>
                <mxCell id="LX5E6P-1whRSMcI1Wzi5-9" style="edgeStyle=orthogonalEdgeStyle;rounded=0;orthogonalLoop=1;jettySize=auto;html=1;exitX=1;exitY=0.5;exitDx=0;exitDy=0;fontSize=20;startArrow=classic;startFill=1;" edge="1" parent="LX5E6P-1whRSMcI1Wzi5-1" source="LX5E6P-1whRSMcI1Wzi5-10" target="LX5E6P-1whRSMcI1Wzi5-11">
                    <mxGeometry relative="1" as="geometry"/>
                </mxCell>
                <mxCell id="LX5E6P-1whRSMcI1Wzi5-10" value="Parties" style="rounded=0;whiteSpace=wrap;html=1;fontSize=20;" vertex="1" parent="LX5E6P-1whRSMcI1Wzi5-1">
                    <mxGeometry x="580" y="460" width="110" height="40" as="geometry"/>
                </mxCell>
                <mxCell id="LX5E6P-1whRSMcI1Wzi5-11" value="Students" style="rounded=0;whiteSpace=wrap;html=1;fontSize=20;" vertex="1" parent="LX5E6P-1whRSMcI1Wzi5-1">
                    <mxGeometry x="720" y="460" width="110" height="40" as="geometry"/>
                </mxCell>
                <mxCell id="LX5E6P-1whRSMcI1Wzi5-12" style="edgeStyle=orthogonalEdgeStyle;rounded=0;orthogonalLoop=1;jettySize=auto;html=1;exitX=1;exitY=0.5;exitDx=0;exitDy=0;fontSize=20;startArrow=classic;startFill=1;" edge="1" parent="LX5E6P-1whRSMcI1Wzi5-1" source="LX5E6P-1whRSMcI1Wzi5-13" target="LX5E6P-1whRSMcI1Wzi5-14">
                    <mxGeometry relative="1" as="geometry"/>
                </mxCell>
                <mxCell id="LX5E6P-1whRSMcI1Wzi5-13" value="Album" style="rounded=0;whiteSpace=wrap;html=1;fontSize=20;" vertex="1" parent="LX5E6P-1whRSMcI1Wzi5-1">
                    <mxGeometry x="580" y="510" width="110" height="40" as="geometry"/>
                </mxCell>
                <mxCell id="LX5E6P-1whRSMcI1Wzi5-14" value="Genre" style="rounded=0;whiteSpace=wrap;html=1;fontSize=20;" vertex="1" parent="LX5E6P-1whRSMcI1Wzi5-1">
                    <mxGeometry x="720" y="510" width="110" height="40" as="geometry"/>
                </mxCell>
            </root>
        </mxGraphModel>
    </diagram>
    <diagram id="iWQUe045LI-dRE3yYRfm" name="08 - ours">
        <mxGraphModel dx="562" dy="346" grid="1" gridSize="10" guides="1" tooltips="1" connect="1" arrows="1" fold="1" page="1" pageScale="1" pageWidth="1920" pageHeight="1200" math="0" shadow="0">
            <root>
                <mxCell id="74rfL-6Y9jlCej7l4vT1-0"/>
                <mxCell id="74rfL-6Y9jlCej7l4vT1-1" parent="74rfL-6Y9jlCej7l4vT1-0"/>
                <mxCell id="74rfL-6Y9jlCej7l4vT1-2" value="User" style="rounded=0;whiteSpace=wrap;html=1;fontSize=19;fillColor=#dae8fc;strokeColor=#6c8ebf;fontStyle=1" vertex="1" parent="74rfL-6Y9jlCej7l4vT1-1">
                    <mxGeometry x="470" y="320" width="120" height="60" as="geometry"/>
                </mxCell>
                <mxCell id="74rfL-6Y9jlCej7l4vT1-3" value="Report" style="rounded=0;whiteSpace=wrap;html=1;fontSize=19;fillColor=#dae8fc;strokeColor=#6c8ebf;fontStyle=1" vertex="1" parent="74rfL-6Y9jlCej7l4vT1-1">
                    <mxGeometry x="670" y="250" width="120" height="60" as="geometry"/>
                </mxCell>
                <mxCell id="74rfL-6Y9jlCej7l4vT1-4" value="Report" style="rounded=0;whiteSpace=wrap;html=1;fontSize=19;fillColor=#dae8fc;strokeColor=#6c8ebf;fontStyle=1" vertex="1" parent="74rfL-6Y9jlCej7l4vT1-1">
                    <mxGeometry x="670" y="320" width="120" height="60" as="geometry"/>
                </mxCell>
                <mxCell id="74rfL-6Y9jlCej7l4vT1-5" value="Report" style="rounded=0;whiteSpace=wrap;html=1;fontSize=19;fillColor=#dae8fc;strokeColor=#6c8ebf;fontStyle=1" vertex="1" parent="74rfL-6Y9jlCej7l4vT1-1">
                    <mxGeometry x="670" y="390" width="120" height="60" as="geometry"/>
                </mxCell>
                <mxCell id="74rfL-6Y9jlCej7l4vT1-6" value="" style="shape=curlyBracket;whiteSpace=wrap;html=1;rounded=1;fontSize=19;" vertex="1" parent="74rfL-6Y9jlCej7l4vT1-1">
                    <mxGeometry x="590" y="250" width="70" height="200" as="geometry"/>
                </mxCell>
                <mxCell id="74rfL-6Y9jlCej7l4vT1-7" value="" style="endArrow=classic;html=1;fontSize=19;strokeWidth=3;" edge="1" parent="74rfL-6Y9jlCej7l4vT1-1">
                    <mxGeometry width="50" height="50" relative="1" as="geometry">
                        <mxPoint x="470" y="240" as="sourcePoint"/>
                        <mxPoint x="790" y="240" as="targetPoint"/>
                    </mxGeometry>
                </mxCell>
                <mxCell id="74rfL-6Y9jlCej7l4vT1-8" value="A User has many Reports" style="text;html=1;strokeColor=none;fillColor=none;align=center;verticalAlign=middle;whiteSpace=wrap;rounded=0;fontSize=19;" vertex="1" parent="74rfL-6Y9jlCej7l4vT1-1">
                    <mxGeometry x="510" y="210" width="255" height="20" as="geometry"/>
                </mxCell>
                <mxCell id="74rfL-6Y9jlCej7l4vT1-9" value="" style="endArrow=classic;html=1;fontSize=19;strokeWidth=3;" edge="1" parent="74rfL-6Y9jlCej7l4vT1-1">
                    <mxGeometry width="50" height="50" relative="1" as="geometry">
                        <mxPoint x="790" y="460" as="sourcePoint"/>
                        <mxPoint x="470" y="460" as="targetPoint"/>
                    </mxGeometry>
                </mxCell>
                <mxCell id="74rfL-6Y9jlCej7l4vT1-10" value="A Report has one User" style="text;html=1;strokeColor=none;fillColor=none;align=center;verticalAlign=middle;whiteSpace=wrap;rounded=0;fontSize=19;" vertex="1" parent="74rfL-6Y9jlCej7l4vT1-1">
                    <mxGeometry x="497.5" y="470" width="255" height="20" as="geometry"/>
                </mxCell>
            </root>
        </mxGraphModel>
    </diagram>
    <diagram name="09 - decs" id="74UIMNb6bHVtyFqG4v50">
        <mxGraphModel dx="541" dy="333" grid="1" gridSize="10" guides="1" tooltips="1" connect="1" arrows="1" fold="1" page="1" pageScale="1" pageWidth="1920" pageHeight="1200" math="0" shadow="0">
            <root>
                <mxCell id="hQyn8fBTIalZyEu9LvhW-0"/>
                <mxCell id="hQyn8fBTIalZyEu9LvhW-1" parent="hQyn8fBTIalZyEu9LvhW-0"/>
                <mxCell id="hQyn8fBTIalZyEu9LvhW-2" value="User" style="rounded=0;whiteSpace=wrap;html=1;fontSize=19;fillColor=#dae8fc;strokeColor=#6c8ebf;fontStyle=1" vertex="1" parent="hQyn8fBTIalZyEu9LvhW-1">
                    <mxGeometry x="400" y="320" width="120" height="60" as="geometry"/>
                </mxCell>
                <mxCell id="hQyn8fBTIalZyEu9LvhW-3" value="Report" style="rounded=0;whiteSpace=wrap;html=1;fontSize=19;fillColor=#dae8fc;strokeColor=#6c8ebf;fontStyle=1" vertex="1" parent="hQyn8fBTIalZyEu9LvhW-1">
                    <mxGeometry x="752.5" y="250" width="120" height="60" as="geometry"/>
                </mxCell>
                <mxCell id="hQyn8fBTIalZyEu9LvhW-4" value="Report" style="rounded=0;whiteSpace=wrap;html=1;fontSize=19;fillColor=#dae8fc;strokeColor=#6c8ebf;fontStyle=1" vertex="1" parent="hQyn8fBTIalZyEu9LvhW-1">
                    <mxGeometry x="752.5" y="320" width="120" height="60" as="geometry"/>
                </mxCell>
                <mxCell id="hQyn8fBTIalZyEu9LvhW-5" value="Report" style="rounded=0;whiteSpace=wrap;html=1;fontSize=19;fillColor=#dae8fc;strokeColor=#6c8ebf;fontStyle=1" vertex="1" parent="hQyn8fBTIalZyEu9LvhW-1">
                    <mxGeometry x="752.5" y="390" width="120" height="60" as="geometry"/>
                </mxCell>
                <mxCell id="hQyn8fBTIalZyEu9LvhW-6" value="" style="shape=curlyBracket;whiteSpace=wrap;html=1;rounded=1;fontSize=19;" vertex="1" parent="hQyn8fBTIalZyEu9LvhW-1">
                    <mxGeometry x="590" y="250" width="70" height="200" as="geometry"/>
                </mxCell>
                <mxCell id="hQyn8fBTIalZyEu9LvhW-7" value="" style="endArrow=classic;html=1;fontSize=19;strokeWidth=3;" edge="1" parent="hQyn8fBTIalZyEu9LvhW-1">
                    <mxGeometry width="50" height="50" relative="1" as="geometry">
                        <mxPoint x="470" y="240" as="sourcePoint"/>
                        <mxPoint x="790" y="240" as="targetPoint"/>
                    </mxGeometry>
                </mxCell>
                <mxCell id="hQyn8fBTIalZyEu9LvhW-8" value="A User has many Reports" style="text;html=1;strokeColor=none;fillColor=none;align=center;verticalAlign=middle;whiteSpace=wrap;rounded=0;fontSize=19;" vertex="1" parent="hQyn8fBTIalZyEu9LvhW-1">
                    <mxGeometry x="510" y="210" width="255" height="20" as="geometry"/>
                </mxCell>
                <mxCell id="hQyn8fBTIalZyEu9LvhW-9" value="" style="endArrow=classic;html=1;fontSize=19;strokeWidth=3;" edge="1" parent="hQyn8fBTIalZyEu9LvhW-1">
                    <mxGeometry width="50" height="50" relative="1" as="geometry">
                        <mxPoint x="790" y="460" as="sourcePoint"/>
                        <mxPoint x="470" y="460" as="targetPoint"/>
                    </mxGeometry>
                </mxCell>
                <mxCell id="hQyn8fBTIalZyEu9LvhW-10" value="A Report has one User" style="text;html=1;strokeColor=none;fillColor=none;align=center;verticalAlign=middle;whiteSpace=wrap;rounded=0;fontSize=19;" vertex="1" parent="hQyn8fBTIalZyEu9LvhW-1">
                    <mxGeometry x="497.5" y="470" width="255" height="20" as="geometry"/>
                </mxCell>
                <mxCell id="hQyn8fBTIalZyEu9LvhW-11" value="OneToMany" style="rounded=0;whiteSpace=wrap;html=1;fontSize=14;fillColor=#f8cecc;strokeColor=#b85450;fontStyle=0" vertex="1" parent="hQyn8fBTIalZyEu9LvhW-1">
                    <mxGeometry x="530" y="335" width="80" height="30" as="geometry"/>
                </mxCell>
                <mxCell id="hQyn8fBTIalZyEu9LvhW-12" value="ManyToOne" style="rounded=0;whiteSpace=wrap;html=1;fontSize=14;fillColor=#fff2cc;strokeColor=#d6b656;fontStyle=0" vertex="1" parent="hQyn8fBTIalZyEu9LvhW-1">
                    <mxGeometry x="672.5" y="265" width="80" height="30" as="geometry"/>
                </mxCell>
                <mxCell id="hQyn8fBTIalZyEu9LvhW-13" value="ManyToOne" style="rounded=0;whiteSpace=wrap;html=1;fontSize=14;fillColor=#fff2cc;strokeColor=#d6b656;fontStyle=0" vertex="1" parent="hQyn8fBTIalZyEu9LvhW-1">
                    <mxGeometry x="672.5" y="335" width="80" height="30" as="geometry"/>
                </mxCell>
                <mxCell id="hQyn8fBTIalZyEu9LvhW-14" value="ManyToOne" style="rounded=0;whiteSpace=wrap;html=1;fontSize=14;fillColor=#fff2cc;strokeColor=#d6b656;fontStyle=0" vertex="1" parent="hQyn8fBTIalZyEu9LvhW-1">
                    <mxGeometry x="672.5" y="405" width="80" height="30" as="geometry"/>
                </mxCell>
            </root>
        </mxGraphModel>
    </diagram>
    <diagram id="SHPYKA_9UCT5cZS0tuPC" name="16 - properties">
        <mxGraphModel dx="469" dy="289" grid="1" gridSize="10" guides="1" tooltips="1" connect="1" arrows="1" fold="1" page="1" pageScale="1" pageWidth="1920" pageHeight="1200" math="0" shadow="0">
            <root>
                <mxCell id="YASpeDXsVkb0XEfeExXS-0"/>
                <mxCell id="YASpeDXsVkb0XEfeExXS-1" parent="YASpeDXsVkb0XEfeExXS-0"/>
                <mxCell id="YASpeDXsVkb0XEfeExXS-2" value="class User" style="rounded=0;whiteSpace=wrap;html=1;fontSize=14;fontStyle=1;fillColor=#dae8fc;strokeColor=#6c8ebf;" vertex="1" parent="YASpeDXsVkb0XEfeExXS-1">
                    <mxGeometry x="510" y="310" width="130" height="30" as="geometry"/>
                </mxCell>
                <mxCell id="YASpeDXsVkb0XEfeExXS-3" value="&amp;nbsp; @OneToMany()" style="rounded=0;whiteSpace=wrap;html=1;fontSize=14;fontStyle=0;fillColor=#f5f5f5;strokeColor=#666666;fontColor=#333333;align=left;" vertex="1" parent="YASpeDXsVkb0XEfeExXS-1">
                    <mxGeometry x="510" y="340" width="130" height="30" as="geometry"/>
                </mxCell>
                <mxCell id="YASpeDXsVkb0XEfeExXS-4" value="&amp;nbsp; reports: Report[]" style="rounded=0;whiteSpace=wrap;html=1;fontSize=14;fontStyle=0;fillColor=#f5f5f5;strokeColor=#666666;fontColor=#333333;align=left;" vertex="1" parent="YASpeDXsVkb0XEfeExXS-1">
                    <mxGeometry x="510" y="370" width="130" height="30" as="geometry"/>
                </mxCell>
                <mxCell id="YASpeDXsVkb0XEfeExXS-5" value="class Report" style="rounded=0;whiteSpace=wrap;html=1;fontSize=14;fontStyle=1;fillColor=#d5e8d4;strokeColor=#82b366;" vertex="1" parent="YASpeDXsVkb0XEfeExXS-1">
                    <mxGeometry x="510" y="440" width="130" height="30" as="geometry"/>
                </mxCell>
                <mxCell id="YASpeDXsVkb0XEfeExXS-6" value="&amp;nbsp; @ManyToOne()" style="rounded=0;whiteSpace=wrap;html=1;fontSize=14;fontStyle=0;fillColor=#f5f5f5;strokeColor=#666666;fontColor=#333333;align=left;" vertex="1" parent="YASpeDXsVkb0XEfeExXS-1">
                    <mxGeometry x="510" y="470" width="130" height="30" as="geometry"/>
                </mxCell>
                <mxCell id="YASpeDXsVkb0XEfeExXS-7" value="&amp;nbsp; user: User" style="rounded=0;whiteSpace=wrap;html=1;fontSize=14;fontStyle=0;fillColor=#f5f5f5;strokeColor=#666666;fontColor=#333333;align=left;" vertex="1" parent="YASpeDXsVkb0XEfeExXS-1">
                    <mxGeometry x="510" y="500" width="130" height="30" as="geometry"/>
                </mxCell>
                <mxCell id="YASpeDXsVkb0XEfeExXS-9" style="edgeStyle=orthogonalEdgeStyle;rounded=0;orthogonalLoop=1;jettySize=auto;html=1;exitX=0;exitY=0.5;exitDx=0;exitDy=0;startArrow=none;startFill=0;strokeWidth=1;fontSize=10;" edge="1" parent="YASpeDXsVkb0XEfeExXS-1" source="YASpeDXsVkb0XEfeExXS-8" target="YASpeDXsVkb0XEfeExXS-3">
                    <mxGeometry relative="1" as="geometry"/>
                </mxCell>
                <mxCell id="YASpeDXsVkb0XEfeExXS-8" value="Does &lt;b&gt;not&lt;/b&gt;&amp;nbsp;change the Users table" style="rounded=0;whiteSpace=wrap;html=1;fontSize=10;fontStyle=0;align=center;" vertex="1" parent="YASpeDXsVkb0XEfeExXS-1">
                    <mxGeometry x="690" y="320" width="190" height="20" as="geometry"/>
                </mxCell>
                <mxCell id="YASpeDXsVkb0XEfeExXS-13" style="edgeStyle=orthogonalEdgeStyle;rounded=0;orthogonalLoop=1;jettySize=auto;html=1;exitX=0;exitY=0.5;exitDx=0;exitDy=0;entryX=1;entryY=0.5;entryDx=0;entryDy=0;startArrow=none;startFill=0;strokeWidth=1;fontSize=10;" edge="1" parent="YASpeDXsVkb0XEfeExXS-1" source="YASpeDXsVkb0XEfeExXS-10" target="YASpeDXsVkb0XEfeExXS-6">
                    <mxGeometry relative="1" as="geometry"/>
                </mxCell>
                <mxCell id="YASpeDXsVkb0XEfeExXS-10" value="Changes the Reports table" style="rounded=0;whiteSpace=wrap;html=1;fontSize=10;fontStyle=0;align=center;" vertex="1" parent="YASpeDXsVkb0XEfeExXS-1">
                    <mxGeometry x="690" y="470" width="190" height="20" as="geometry"/>
                </mxCell>
                <mxCell id="YASpeDXsVkb0XEfeExXS-15" style="edgeStyle=orthogonalEdgeStyle;rounded=0;orthogonalLoop=1;jettySize=auto;html=1;exitX=0;exitY=0.5;exitDx=0;exitDy=0;entryX=1;entryY=0.5;entryDx=0;entryDy=0;startArrow=none;startFill=0;strokeWidth=1;fontSize=10;" edge="1" parent="YASpeDXsVkb0XEfeExXS-1" source="YASpeDXsVkb0XEfeExXS-14" target="YASpeDXsVkb0XEfeExXS-7">
                    <mxGeometry relative="1" as="geometry"/>
                </mxCell>
                <mxCell id="YASpeDXsVkb0XEfeExXS-14" value="User who created this report will be accessed with:&lt;br&gt;&lt;i&gt;report.user&lt;/i&gt;" style="rounded=0;whiteSpace=wrap;html=1;fontSize=10;fontStyle=0;align=center;" vertex="1" parent="YASpeDXsVkb0XEfeExXS-1">
                    <mxGeometry x="690" y="492.5" width="190" height="45" as="geometry"/>
                </mxCell>
                <mxCell id="YASpeDXsVkb0XEfeExXS-17" style="edgeStyle=orthogonalEdgeStyle;rounded=0;orthogonalLoop=1;jettySize=auto;html=1;exitX=0;exitY=0.5;exitDx=0;exitDy=0;entryX=1;entryY=0.5;entryDx=0;entryDy=0;startArrow=none;startFill=0;strokeWidth=1;fontSize=10;" edge="1" parent="YASpeDXsVkb0XEfeExXS-1" source="YASpeDXsVkb0XEfeExXS-16" target="YASpeDXsVkb0XEfeExXS-7">
                    <mxGeometry relative="1" as="geometry"/>
                </mxCell>
                <mxCell id="YASpeDXsVkb0XEfeExXS-16" value="Association&amp;nbsp;&lt;b&gt;is not automatically fetched&lt;/b&gt;&amp;nbsp;when we fetch a Report" style="rounded=0;whiteSpace=wrap;html=1;fontSize=10;fontStyle=0;align=center;" vertex="1" parent="YASpeDXsVkb0XEfeExXS-1">
                    <mxGeometry x="690" y="539.5" width="190" height="45" as="geometry"/>
                </mxCell>
                <mxCell id="YASpeDXsVkb0XEfeExXS-20" style="edgeStyle=orthogonalEdgeStyle;rounded=0;orthogonalLoop=1;jettySize=auto;html=1;exitX=0;exitY=0.5;exitDx=0;exitDy=0;entryX=1;entryY=0.5;entryDx=0;entryDy=0;startArrow=none;startFill=0;strokeWidth=1;fontSize=10;" edge="1" parent="YASpeDXsVkb0XEfeExXS-1" source="YASpeDXsVkb0XEfeExXS-18" target="YASpeDXsVkb0XEfeExXS-4">
                    <mxGeometry relative="1" as="geometry"/>
                </mxCell>
                <mxCell id="YASpeDXsVkb0XEfeExXS-18" value="Reports tied to this user will be accessed with:&lt;br&gt;&lt;i&gt;user.reports&lt;/i&gt;" style="rounded=0;whiteSpace=wrap;html=1;fontSize=10;fontStyle=0;align=center;" vertex="1" parent="YASpeDXsVkb0XEfeExXS-1">
                    <mxGeometry x="690" y="344" width="190" height="45" as="geometry"/>
                </mxCell>
                <mxCell id="YASpeDXsVkb0XEfeExXS-22" style="edgeStyle=orthogonalEdgeStyle;rounded=0;orthogonalLoop=1;jettySize=auto;html=1;exitX=0;exitY=0.5;exitDx=0;exitDy=0;entryX=1;entryY=0.5;entryDx=0;entryDy=0;startArrow=none;startFill=0;strokeWidth=1;fontSize=10;" edge="1" parent="YASpeDXsVkb0XEfeExXS-1" source="YASpeDXsVkb0XEfeExXS-21" target="YASpeDXsVkb0XEfeExXS-4">
                    <mxGeometry relative="1" as="geometry"/>
                </mxCell>
                <mxCell id="YASpeDXsVkb0XEfeExXS-21" value="Association &lt;b&gt;is not automatically fetched&lt;/b&gt;&amp;nbsp;when we fetch a User" style="rounded=0;whiteSpace=wrap;html=1;fontSize=10;fontStyle=0;align=center;" vertex="1" parent="YASpeDXsVkb0XEfeExXS-1">
                    <mxGeometry x="690" y="395" width="190" height="45" as="geometry"/>
                </mxCell>
            </root>
        </mxGraphModel>
    </diagram>
    <diagram id="jk5fJ14ss9R3-wadQy4T" name="09 - relationships">
        <mxGraphModel dx="562" dy="346" grid="1" gridSize="10" guides="1" tooltips="1" connect="1" arrows="1" fold="1" page="1" pageScale="1" pageWidth="1920" pageHeight="1200" math="0" shadow="0">
            <root>
                <mxCell id="TPu09CzR348GyVg1tuQ--0"/>
                <mxCell id="TPu09CzR348GyVg1tuQ--1" parent="TPu09CzR348GyVg1tuQ--0"/>
                <mxCell id="yrOazN2tnnqZWMP_Ij4l-0" value="User" style="rounded=0;whiteSpace=wrap;html=1;fontSize=24;fillColor=#dae8fc;strokeColor=#6c8ebf;fontStyle=1" vertex="1" parent="TPu09CzR348GyVg1tuQ--1">
                    <mxGeometry x="530" y="335" width="150" height="40" as="geometry"/>
                </mxCell>
                <mxCell id="yrOazN2tnnqZWMP_Ij4l-3" value="Report" style="rounded=0;whiteSpace=wrap;html=1;fontSize=24;fillColor=#dae8fc;strokeColor=#6c8ebf;fontStyle=1" vertex="1" parent="TPu09CzR348GyVg1tuQ--1">
                    <mxGeometry x="760" y="360" width="150" height="40" as="geometry"/>
                </mxCell>
                <mxCell id="mkLR-4G9OrRAgjI--Pl1-4" style="edgeStyle=orthogonalEdgeStyle;rounded=0;orthogonalLoop=1;jettySize=auto;html=1;exitX=0;exitY=0.5;exitDx=0;exitDy=0;entryX=1;entryY=0.5;entryDx=0;entryDy=0;startArrow=none;startFill=0;strokeWidth=1;fontSize=10;" edge="1" parent="TPu09CzR348GyVg1tuQ--1" source="yrOazN2tnnqZWMP_Ij4l-5" target="yrOazN2tnnqZWMP_Ij4l-0">
                    <mxGeometry relative="1" as="geometry"/>
                </mxCell>
                <mxCell id="yrOazN2tnnqZWMP_Ij4l-5" value="owner" style="rounded=0;whiteSpace=wrap;html=1;fontSize=17;fillColor=#dae8fc;strokeColor=#6c8ebf;fontStyle=2" vertex="1" parent="TPu09CzR348GyVg1tuQ--1">
                    <mxGeometry x="760" y="400" width="150" height="30" as="geometry"/>
                </mxCell>
                <mxCell id="mkLR-4G9OrRAgjI--Pl1-5" style="edgeStyle=orthogonalEdgeStyle;rounded=0;orthogonalLoop=1;jettySize=auto;html=1;exitX=0;exitY=0.5;exitDx=0;exitDy=0;entryX=1;entryY=0.5;entryDx=0;entryDy=0;startArrow=none;startFill=0;strokeWidth=1;fontSize=10;" edge="1" parent="TPu09CzR348GyVg1tuQ--1" source="yrOazN2tnnqZWMP_Ij4l-18" target="yrOazN2tnnqZWMP_Ij4l-20">
                    <mxGeometry relative="1" as="geometry"/>
                </mxCell>
                <mxCell id="yrOazN2tnnqZWMP_Ij4l-18" value="approver" style="rounded=0;whiteSpace=wrap;html=1;fontSize=17;fillColor=#dae8fc;strokeColor=#6c8ebf;fontStyle=2" vertex="1" parent="TPu09CzR348GyVg1tuQ--1">
                    <mxGeometry x="760" y="430" width="150" height="30" as="geometry"/>
                </mxCell>
                <mxCell id="yrOazN2tnnqZWMP_Ij4l-20" value="User" style="rounded=0;whiteSpace=wrap;html=1;fontSize=24;fillColor=#dae8fc;strokeColor=#6c8ebf;fontStyle=1" vertex="1" parent="TPu09CzR348GyVg1tuQ--1">
                    <mxGeometry x="530" y="440" width="150" height="40" as="geometry"/>
                </mxCell>
                <mxCell id="yrOazN2tnnqZWMP_Ij4l-23" value="createdReports" style="rounded=0;whiteSpace=wrap;html=1;fontSize=17;fillColor=#dae8fc;strokeColor=#6c8ebf;fontStyle=2" vertex="1" parent="TPu09CzR348GyVg1tuQ--1">
                    <mxGeometry x="530" y="375" width="150" height="30" as="geometry"/>
                </mxCell>
                <mxCell id="yrOazN2tnnqZWMP_Ij4l-24" value="approvedReports" style="rounded=0;whiteSpace=wrap;html=1;fontSize=17;fillColor=#dae8fc;strokeColor=#6c8ebf;fontStyle=2" vertex="1" parent="TPu09CzR348GyVg1tuQ--1">
                    <mxGeometry x="530" y="480" width="150" height="30" as="geometry"/>
                </mxCell>
            </root>
        </mxGraphModel>
    </diagram>
    <diagram id="FH1FV3dR30QiENZfg8Q2" name="14 - steps">
        <mxGraphModel dx="469" dy="289" grid="1" gridSize="10" guides="1" tooltips="1" connect="1" arrows="1" fold="1" page="1" pageScale="1" pageWidth="1920" pageHeight="1200" math="0" shadow="0">
            <root>
                <mxCell id="dYW23cwSZwKs6kRIMER8-0"/>
                <mxCell id="dYW23cwSZwKs6kRIMER8-1" parent="dYW23cwSZwKs6kRIMER8-0"/>
                <mxCell id="dYW23cwSZwKs6kRIMER8-2" value="Figure out what kind of association we are modeling" style="rounded=0;whiteSpace=wrap;html=1;fontSize=14;" vertex="1" parent="dYW23cwSZwKs6kRIMER8-1">
                    <mxGeometry x="560" y="310" width="340" height="40" as="geometry"/>
                </mxCell>
                <mxCell id="dYW23cwSZwKs6kRIMER8-3" value="" style="endArrow=classic;html=1;strokeWidth=1;fontSize=20;" edge="1" parent="dYW23cwSZwKs6kRIMER8-1">
                    <mxGeometry width="50" height="50" relative="1" as="geometry">
                        <mxPoint x="550" y="310" as="sourcePoint"/>
                        <mxPoint x="550" y="500" as="targetPoint"/>
                    </mxGeometry>
                </mxCell>
                <mxCell id="dYW23cwSZwKs6kRIMER8-4" value="Associations with Nest and TypeORM" style="text;html=1;strokeColor=none;fillColor=none;align=center;verticalAlign=middle;whiteSpace=wrap;rounded=0;fontSize=20;fontStyle=1" vertex="1" parent="dYW23cwSZwKs6kRIMER8-1">
                    <mxGeometry x="530" y="280" width="400" height="20" as="geometry"/>
                </mxCell>
                <mxCell id="dYW23cwSZwKs6kRIMER8-5" value="Add the appropriate decorators to our related entities" style="rounded=0;whiteSpace=wrap;html=1;fontSize=14;" vertex="1" parent="dYW23cwSZwKs6kRIMER8-1">
                    <mxGeometry x="560" y="360" width="340" height="40" as="geometry"/>
                </mxCell>
                <mxCell id="dYW23cwSZwKs6kRIMER8-6" value="Associate the records when one is created" style="rounded=0;whiteSpace=wrap;html=1;fontSize=14;" vertex="1" parent="dYW23cwSZwKs6kRIMER8-1">
                    <mxGeometry x="560" y="410" width="340" height="40" as="geometry"/>
                </mxCell>
                <mxCell id="dYW23cwSZwKs6kRIMER8-7" value="Apply a serializer to limit info shared" style="rounded=0;whiteSpace=wrap;html=1;fontSize=14;" vertex="1" parent="dYW23cwSZwKs6kRIMER8-1">
                    <mxGeometry x="560" y="460" width="340" height="40" as="geometry"/>
                </mxCell>
            </root>
        </mxGraphModel>
    </diagram>
    <diagram id="hF9vPOHGtPoK3Thnlfk1" name="17 - assoc">
        <mxGraphModel dx="469" dy="289" grid="1" gridSize="10" guides="1" tooltips="1" connect="1" arrows="1" fold="1" page="1" pageScale="1" pageWidth="1920" pageHeight="1200" math="0" shadow="0">
            <root>
                <mxCell id="2IDWC5RRa69ew00bmSpo-0"/>
                <mxCell id="2IDWC5RRa69ew00bmSpo-1" parent="2IDWC5RRa69ew00bmSpo-0"/>
                <mxCell id="2IDWC5RRa69ew00bmSpo-2" value="POST /reports" style="rounded=0;whiteSpace=wrap;html=1;fontSize=10;align=center;fontStyle=1;fillColor=#f5f5f5;strokeColor=#666666;fontColor=#333333;" vertex="1" parent="2IDWC5RRa69ew00bmSpo-1">
                    <mxGeometry x="460" y="310" width="130" height="30" as="geometry"/>
                </mxCell>
                <mxCell id="2IDWC5RRa69ew00bmSpo-7" style="edgeStyle=orthogonalEdgeStyle;rounded=0;orthogonalLoop=1;jettySize=auto;html=1;exitX=1;exitY=0.5;exitDx=0;exitDy=0;startArrow=none;startFill=0;strokeWidth=1;fontSize=10;" edge="1" parent="2IDWC5RRa69ew00bmSpo-1" source="2IDWC5RRa69ew00bmSpo-3" target="2IDWC5RRa69ew00bmSpo-6">
                    <mxGeometry relative="1" as="geometry"/>
                </mxCell>
                <mxCell id="2IDWC5RRa69ew00bmSpo-3" value="Cookie: asdfj14" style="rounded=0;whiteSpace=wrap;html=1;fontSize=10;align=center;fontStyle=0;fillColor=#f5f5f5;strokeColor=#666666;fontColor=#333333;" vertex="1" parent="2IDWC5RRa69ew00bmSpo-1">
                    <mxGeometry x="460" y="340" width="130" height="30" as="geometry"/>
                </mxCell>
                <mxCell id="2IDWC5RRa69ew00bmSpo-17" style="edgeStyle=orthogonalEdgeStyle;rounded=0;orthogonalLoop=1;jettySize=auto;html=1;exitX=1;exitY=0.5;exitDx=0;exitDy=0;startArrow=none;startFill=0;strokeWidth=1;fontSize=13;" edge="1" parent="2IDWC5RRa69ew00bmSpo-1" source="2IDWC5RRa69ew00bmSpo-4" target="2IDWC5RRa69ew00bmSpo-16">
                    <mxGeometry relative="1" as="geometry"/>
                </mxCell>
                <mxCell id="2IDWC5RRa69ew00bmSpo-4" value="{ year: 1950, mileage: 1551, price: 5523, make, model, lng, lat }" style="rounded=0;whiteSpace=wrap;html=1;fontSize=10;align=center;fontStyle=0;fillColor=#f5f5f5;strokeColor=#666666;fontColor=#333333;" vertex="1" parent="2IDWC5RRa69ew00bmSpo-1">
                    <mxGeometry x="460" y="370" width="130" height="50" as="geometry"/>
                </mxCell>
                <mxCell id="2IDWC5RRa69ew00bmSpo-9" style="edgeStyle=orthogonalEdgeStyle;rounded=0;orthogonalLoop=1;jettySize=auto;html=1;exitX=1;exitY=0.5;exitDx=0;exitDy=0;startArrow=none;startFill=0;strokeWidth=1;fontSize=13;" edge="1" parent="2IDWC5RRa69ew00bmSpo-1" source="2IDWC5RRa69ew00bmSpo-6">
                    <mxGeometry relative="1" as="geometry">
                        <mxPoint x="770" y="355.20000000000005" as="targetPoint"/>
                    </mxGeometry>
                </mxCell>
                <mxCell id="2IDWC5RRa69ew00bmSpo-6" value="@CurrentUser()&lt;br&gt;Decorator" style="rounded=0;whiteSpace=wrap;html=1;fontSize=13;align=center;fillColor=#dae8fc;strokeColor=#6c8ebf;fontStyle=1" vertex="1" parent="2IDWC5RRa69ew00bmSpo-1">
                    <mxGeometry x="620" y="337.5" width="120" height="35" as="geometry"/>
                </mxCell>
                <mxCell id="2IDWC5RRa69ew00bmSpo-21" style="edgeStyle=orthogonalEdgeStyle;rounded=0;orthogonalLoop=1;jettySize=auto;html=1;exitX=1;exitY=0.5;exitDx=0;exitDy=0;startArrow=none;startFill=0;strokeWidth=1;fontSize=13;" edge="1" parent="2IDWC5RRa69ew00bmSpo-1" source="2IDWC5RRa69ew00bmSpo-16" target="2IDWC5RRa69ew00bmSpo-20">
                    <mxGeometry relative="1" as="geometry"/>
                </mxCell>
                <mxCell id="2IDWC5RRa69ew00bmSpo-16" value="@Body()&lt;br&gt;CreateReportDto" style="rounded=0;whiteSpace=wrap;html=1;fontSize=13;align=center;fillColor=#dae8fc;strokeColor=#6c8ebf;fontStyle=1" vertex="1" parent="2IDWC5RRa69ew00bmSpo-1">
                    <mxGeometry x="620" y="377.5" width="120" height="35" as="geometry"/>
                </mxCell>
                <mxCell id="zF7rrTwGpQQnaxtHHBCJ-0" style="edgeStyle=orthogonalEdgeStyle;rounded=0;orthogonalLoop=1;jettySize=auto;html=1;exitX=0.5;exitY=0;exitDx=0;exitDy=0;entryX=1;entryY=0.5;entryDx=0;entryDy=0;startArrow=none;startFill=0;strokeWidth=1;fontSize=13;" edge="1" parent="2IDWC5RRa69ew00bmSpo-1" source="2IDWC5RRa69ew00bmSpo-19">
                    <mxGeometry relative="1" as="geometry">
                        <mxPoint x="1200" y="511.25" as="targetPoint"/>
                    </mxGeometry>
                </mxCell>
                <mxCell id="2IDWC5RRa69ew00bmSpo-19" value="user entity instance" style="rounded=0;whiteSpace=wrap;html=1;fontSize=13;align=center;fillColor=#d5e8d4;strokeColor=#82b366;fontStyle=0" vertex="1" parent="2IDWC5RRa69ew00bmSpo-1">
                    <mxGeometry x="770" y="337.5" width="120" height="35" as="geometry"/>
                </mxCell>
                <mxCell id="2IDWC5RRa69ew00bmSpo-20" value="Validated CreateReportDto" style="rounded=0;whiteSpace=wrap;html=1;fontSize=13;align=center;fillColor=#d5e8d4;strokeColor=#82b366;fontStyle=0" vertex="1" parent="2IDWC5RRa69ew00bmSpo-1">
                    <mxGeometry x="770" y="377.5" width="120" height="35" as="geometry"/>
                </mxCell>
                <mxCell id="2IDWC5RRa69ew00bmSpo-22" value="" style="shape=curlyBracket;whiteSpace=wrap;html=1;rounded=1;fontSize=13;align=center;rotation=-180;" vertex="1" parent="2IDWC5RRa69ew00bmSpo-1">
                    <mxGeometry x="900" y="337" width="30" height="78" as="geometry"/>
                </mxCell>
                <mxCell id="uEd-mIAM-uhpaJ2bKSFb-1" style="edgeStyle=orthogonalEdgeStyle;rounded=0;orthogonalLoop=1;jettySize=auto;html=1;exitX=1;exitY=0.5;exitDx=0;exitDy=0;startArrow=none;startFill=0;strokeWidth=1;fontSize=13;" edge="1" parent="2IDWC5RRa69ew00bmSpo-1" source="2IDWC5RRa69ew00bmSpo-23" target="uEd-mIAM-uhpaJ2bKSFb-0">
                    <mxGeometry relative="1" as="geometry"/>
                </mxCell>
                <mxCell id="2IDWC5RRa69ew00bmSpo-23" value="Report Entity Instance" style="rounded=0;whiteSpace=wrap;html=1;fontSize=13;align=center;fontStyle=1;fillColor=#f5f5f5;strokeColor=#666666;fontColor=#333333;" vertex="1" parent="2IDWC5RRa69ew00bmSpo-1">
                    <mxGeometry x="950" y="340" width="190" height="30" as="geometry"/>
                </mxCell>
                <mxCell id="2IDWC5RRa69ew00bmSpo-30" style="edgeStyle=orthogonalEdgeStyle;rounded=0;orthogonalLoop=1;jettySize=auto;html=1;exitX=1;exitY=0.5;exitDx=0;exitDy=0;startArrow=none;startFill=0;strokeWidth=1;fontSize=13;" edge="1" parent="2IDWC5RRa69ew00bmSpo-1" source="2IDWC5RRa69ew00bmSpo-24" target="2IDWC5RRa69ew00bmSpo-29">
                    <mxGeometry relative="1" as="geometry"/>
                </mxCell>
                <mxCell id="2IDWC5RRa69ew00bmSpo-24" value="lng" style="rounded=0;whiteSpace=wrap;html=1;fontSize=13;align=center;fontStyle=0" vertex="1" parent="2IDWC5RRa69ew00bmSpo-1">
                    <mxGeometry x="950" y="377.5" width="90" height="22.5" as="geometry"/>
                </mxCell>
                <mxCell id="2IDWC5RRa69ew00bmSpo-26" value="lat" style="rounded=0;whiteSpace=wrap;html=1;fontSize=13;align=center;fontStyle=0" vertex="1" parent="2IDWC5RRa69ew00bmSpo-1">
                    <mxGeometry x="950" y="408" width="90" height="22.5" as="geometry"/>
                </mxCell>
                <mxCell id="2IDWC5RRa69ew00bmSpo-27" value="price" style="rounded=0;whiteSpace=wrap;html=1;fontSize=13;align=center;fontStyle=0" vertex="1" parent="2IDWC5RRa69ew00bmSpo-1">
                    <mxGeometry x="950" y="470" width="90" height="22.5" as="geometry"/>
                </mxCell>
                <mxCell id="2IDWC5RRa69ew00bmSpo-28" value="..." style="rounded=0;whiteSpace=wrap;html=1;fontSize=13;align=center;fontStyle=0" vertex="1" parent="2IDWC5RRa69ew00bmSpo-1">
                    <mxGeometry x="950" y="439" width="90" height="22.5" as="geometry"/>
                </mxCell>
                <mxCell id="2IDWC5RRa69ew00bmSpo-29" value="45" style="rounded=0;whiteSpace=wrap;html=1;fontSize=13;align=center;fontStyle=0" vertex="1" parent="2IDWC5RRa69ew00bmSpo-1">
                    <mxGeometry x="1060" y="377.5" width="80" height="22.5" as="geometry"/>
                </mxCell>
                <mxCell id="2IDWC5RRa69ew00bmSpo-31" style="edgeStyle=orthogonalEdgeStyle;rounded=0;orthogonalLoop=1;jettySize=auto;html=1;exitX=1;exitY=0.5;exitDx=0;exitDy=0;startArrow=none;startFill=0;strokeWidth=1;fontSize=13;" edge="1" parent="2IDWC5RRa69ew00bmSpo-1" target="2IDWC5RRa69ew00bmSpo-32">
                    <mxGeometry relative="1" as="geometry">
                        <mxPoint x="1040" y="419.25" as="sourcePoint"/>
                    </mxGeometry>
                </mxCell>
                <mxCell id="2IDWC5RRa69ew00bmSpo-32" value="45" style="rounded=0;whiteSpace=wrap;html=1;fontSize=13;align=center;fontStyle=0" vertex="1" parent="2IDWC5RRa69ew00bmSpo-1">
                    <mxGeometry x="1060" y="408" width="80" height="22.5" as="geometry"/>
                </mxCell>
                <mxCell id="2IDWC5RRa69ew00bmSpo-33" style="edgeStyle=orthogonalEdgeStyle;rounded=0;orthogonalLoop=1;jettySize=auto;html=1;exitX=1;exitY=0.5;exitDx=0;exitDy=0;startArrow=none;startFill=0;strokeWidth=1;fontSize=13;" edge="1" parent="2IDWC5RRa69ew00bmSpo-1" target="2IDWC5RRa69ew00bmSpo-34">
                    <mxGeometry relative="1" as="geometry">
                        <mxPoint x="1040" y="450.25" as="sourcePoint"/>
                    </mxGeometry>
                </mxCell>
                <mxCell id="2IDWC5RRa69ew00bmSpo-34" value="...." style="rounded=0;whiteSpace=wrap;html=1;fontSize=13;align=center;fontStyle=0" vertex="1" parent="2IDWC5RRa69ew00bmSpo-1">
                    <mxGeometry x="1060" y="439" width="80" height="22.5" as="geometry"/>
                </mxCell>
                <mxCell id="2IDWC5RRa69ew00bmSpo-35" style="edgeStyle=orthogonalEdgeStyle;rounded=0;orthogonalLoop=1;jettySize=auto;html=1;exitX=1;exitY=0.5;exitDx=0;exitDy=0;startArrow=none;startFill=0;strokeWidth=1;fontSize=13;" edge="1" parent="2IDWC5RRa69ew00bmSpo-1" target="2IDWC5RRa69ew00bmSpo-36">
                    <mxGeometry relative="1" as="geometry">
                        <mxPoint x="1040" y="481.25" as="sourcePoint"/>
                    </mxGeometry>
                </mxCell>
                <mxCell id="2IDWC5RRa69ew00bmSpo-36" value="50000" style="rounded=0;whiteSpace=wrap;html=1;fontSize=13;align=center;fontStyle=0" vertex="1" parent="2IDWC5RRa69ew00bmSpo-1">
                    <mxGeometry x="1060" y="470" width="80" height="22.5" as="geometry"/>
                </mxCell>
                <mxCell id="2IDWC5RRa69ew00bmSpo-37" value="user" style="rounded=0;whiteSpace=wrap;html=1;fontSize=13;align=center;fontStyle=0" vertex="1" parent="2IDWC5RRa69ew00bmSpo-1">
                    <mxGeometry x="950" y="500" width="90" height="22.5" as="geometry"/>
                </mxCell>
                <mxCell id="2IDWC5RRa69ew00bmSpo-38" style="edgeStyle=orthogonalEdgeStyle;rounded=0;orthogonalLoop=1;jettySize=auto;html=1;exitX=1;exitY=0.5;exitDx=0;exitDy=0;startArrow=none;startFill=0;strokeWidth=1;fontSize=13;" edge="1" parent="2IDWC5RRa69ew00bmSpo-1">
                    <mxGeometry relative="1" as="geometry">
                        <mxPoint x="1040" y="511.25" as="sourcePoint"/>
                        <mxPoint x="1060" y="511.26666666666677" as="targetPoint"/>
                    </mxGeometry>
                </mxCell>
                <mxCell id="uEd-mIAM-uhpaJ2bKSFb-0" value="Reports Repo&lt;br&gt;Save Method" style="rounded=0;whiteSpace=wrap;html=1;fontSize=13;align=center;fillColor=#f8cecc;strokeColor=#b85450;fontStyle=1" vertex="1" parent="2IDWC5RRa69ew00bmSpo-1">
                    <mxGeometry x="1180" y="325" width="120" height="60" as="geometry"/>
                </mxCell>
            </root>
        </mxGraphModel>
    </diagram>
    <diagram id="OeWIwPmfPPFRZ-_2eakh" name="18 - repsonse">
        <mxGraphModel dx="469" dy="289" grid="1" gridSize="10" guides="1" tooltips="1" connect="1" arrows="1" fold="1" page="1" pageScale="1" pageWidth="1920" pageHeight="1200" math="0" shadow="0">
            <root>
                <mxCell id="SkgSwd5YiuYWyeFVLWRK-0"/>
                <mxCell id="SkgSwd5YiuYWyeFVLWRK-1" parent="SkgSwd5YiuYWyeFVLWRK-0"/>
                <mxCell id="SkgSwd5YiuYWyeFVLWRK-5" style="edgeStyle=orthogonalEdgeStyle;rounded=0;orthogonalLoop=1;jettySize=auto;html=1;exitX=1;exitY=0.5;exitDx=0;exitDy=0;startArrow=none;startFill=0;strokeWidth=1;fontSize=13;" edge="1" parent="SkgSwd5YiuYWyeFVLWRK-1" source="SkgSwd5YiuYWyeFVLWRK-2">
                    <mxGeometry relative="1" as="geometry">
                        <mxPoint x="660" y="305.1428571428571" as="targetPoint"/>
                    </mxGeometry>
                </mxCell>
                <mxCell id="SkgSwd5YiuYWyeFVLWRK-2" value="GET /reports/3" style="rounded=0;whiteSpace=wrap;html=1;fontSize=13;align=center;fillColor=#f5f5f5;strokeColor=#666666;fontColor=#333333;fontStyle=1" vertex="1" parent="SkgSwd5YiuYWyeFVLWRK-1">
                    <mxGeometry x="520" y="290" width="110" height="30" as="geometry"/>
                </mxCell>
                <mxCell id="UfKM8jFbWh5Io7jbaa0r-0" value="Report Entity Instance" style="rounded=0;whiteSpace=wrap;html=1;fontSize=13;align=center;fontStyle=1;fillColor=#f5f5f5;strokeColor=#666666;fontColor=#333333;" vertex="1" parent="SkgSwd5YiuYWyeFVLWRK-1">
                    <mxGeometry x="660" y="290" width="190" height="30" as="geometry"/>
                </mxCell>
                <mxCell id="UfKM8jFbWh5Io7jbaa0r-1" style="edgeStyle=orthogonalEdgeStyle;rounded=0;orthogonalLoop=1;jettySize=auto;html=1;exitX=1;exitY=0.5;exitDx=0;exitDy=0;startArrow=none;startFill=0;strokeWidth=1;fontSize=13;" edge="1" parent="SkgSwd5YiuYWyeFVLWRK-1" source="UfKM8jFbWh5Io7jbaa0r-2" target="UfKM8jFbWh5Io7jbaa0r-6">
                    <mxGeometry relative="1" as="geometry"/>
                </mxCell>
                <mxCell id="UfKM8jFbWh5Io7jbaa0r-2" value="lng" style="rounded=0;whiteSpace=wrap;html=1;fontSize=13;align=center;fontStyle=0" vertex="1" parent="SkgSwd5YiuYWyeFVLWRK-1">
                    <mxGeometry x="660" y="327.5" width="90" height="22.5" as="geometry"/>
                </mxCell>
                <mxCell id="UfKM8jFbWh5Io7jbaa0r-3" value="lat" style="rounded=0;whiteSpace=wrap;html=1;fontSize=13;align=center;fontStyle=0" vertex="1" parent="SkgSwd5YiuYWyeFVLWRK-1">
                    <mxGeometry x="660" y="358" width="90" height="22.5" as="geometry"/>
                </mxCell>
                <mxCell id="UfKM8jFbWh5Io7jbaa0r-4" value="price" style="rounded=0;whiteSpace=wrap;html=1;fontSize=13;align=center;fontStyle=0" vertex="1" parent="SkgSwd5YiuYWyeFVLWRK-1">
                    <mxGeometry x="660" y="420" width="90" height="22.5" as="geometry"/>
                </mxCell>
                <mxCell id="UfKM8jFbWh5Io7jbaa0r-5" value="..." style="rounded=0;whiteSpace=wrap;html=1;fontSize=13;align=center;fontStyle=0" vertex="1" parent="SkgSwd5YiuYWyeFVLWRK-1">
                    <mxGeometry x="660" y="389" width="90" height="22.5" as="geometry"/>
                </mxCell>
                <mxCell id="UfKM8jFbWh5Io7jbaa0r-6" value="45" style="rounded=0;whiteSpace=wrap;html=1;fontSize=13;align=center;fontStyle=0" vertex="1" parent="SkgSwd5YiuYWyeFVLWRK-1">
                    <mxGeometry x="770" y="327.5" width="80" height="22.5" as="geometry"/>
                </mxCell>
                <mxCell id="UfKM8jFbWh5Io7jbaa0r-7" style="edgeStyle=orthogonalEdgeStyle;rounded=0;orthogonalLoop=1;jettySize=auto;html=1;exitX=1;exitY=0.5;exitDx=0;exitDy=0;startArrow=none;startFill=0;strokeWidth=1;fontSize=13;" edge="1" parent="SkgSwd5YiuYWyeFVLWRK-1" target="UfKM8jFbWh5Io7jbaa0r-8">
                    <mxGeometry relative="1" as="geometry">
                        <mxPoint x="750" y="369.25" as="sourcePoint"/>
                    </mxGeometry>
                </mxCell>
                <mxCell id="UfKM8jFbWh5Io7jbaa0r-8" value="45" style="rounded=0;whiteSpace=wrap;html=1;fontSize=13;align=center;fontStyle=0" vertex="1" parent="SkgSwd5YiuYWyeFVLWRK-1">
                    <mxGeometry x="770" y="358" width="80" height="22.5" as="geometry"/>
                </mxCell>
                <mxCell id="UfKM8jFbWh5Io7jbaa0r-9" style="edgeStyle=orthogonalEdgeStyle;rounded=0;orthogonalLoop=1;jettySize=auto;html=1;exitX=1;exitY=0.5;exitDx=0;exitDy=0;startArrow=none;startFill=0;strokeWidth=1;fontSize=13;" edge="1" parent="SkgSwd5YiuYWyeFVLWRK-1" target="UfKM8jFbWh5Io7jbaa0r-10">
                    <mxGeometry relative="1" as="geometry">
                        <mxPoint x="750" y="400.25" as="sourcePoint"/>
                    </mxGeometry>
                </mxCell>
                <mxCell id="UfKM8jFbWh5Io7jbaa0r-10" value="...." style="rounded=0;whiteSpace=wrap;html=1;fontSize=13;align=center;fontStyle=0" vertex="1" parent="SkgSwd5YiuYWyeFVLWRK-1">
                    <mxGeometry x="770" y="389" width="80" height="22.5" as="geometry"/>
                </mxCell>
                <mxCell id="UfKM8jFbWh5Io7jbaa0r-11" style="edgeStyle=orthogonalEdgeStyle;rounded=0;orthogonalLoop=1;jettySize=auto;html=1;exitX=1;exitY=0.5;exitDx=0;exitDy=0;startArrow=none;startFill=0;strokeWidth=1;fontSize=13;" edge="1" parent="SkgSwd5YiuYWyeFVLWRK-1" target="UfKM8jFbWh5Io7jbaa0r-12">
                    <mxGeometry relative="1" as="geometry">
                        <mxPoint x="750" y="431.25" as="sourcePoint"/>
                    </mxGeometry>
                </mxCell>
                <mxCell id="UfKM8jFbWh5Io7jbaa0r-12" value="50000" style="rounded=0;whiteSpace=wrap;html=1;fontSize=13;align=center;fontStyle=0" vertex="1" parent="SkgSwd5YiuYWyeFVLWRK-1">
                    <mxGeometry x="770" y="420" width="80" height="22.5" as="geometry"/>
                </mxCell>
                <mxCell id="UfKM8jFbWh5Io7jbaa0r-13" value="user" style="rounded=0;whiteSpace=wrap;html=1;fontSize=13;align=center;fontStyle=0" vertex="1" parent="SkgSwd5YiuYWyeFVLWRK-1">
                    <mxGeometry x="660" y="450" width="90" height="22.5" as="geometry"/>
                </mxCell>
                <mxCell id="UfKM8jFbWh5Io7jbaa0r-14" style="edgeStyle=orthogonalEdgeStyle;rounded=0;orthogonalLoop=1;jettySize=auto;html=1;exitX=1;exitY=0.5;exitDx=0;exitDy=0;startArrow=none;startFill=0;strokeWidth=1;fontSize=13;" edge="1" parent="SkgSwd5YiuYWyeFVLWRK-1">
                    <mxGeometry relative="1" as="geometry">
                        <mxPoint x="750" y="461.25" as="sourcePoint"/>
                        <mxPoint x="770" y="461.26666666666677" as="targetPoint"/>
                    </mxGeometry>
                </mxCell>
                <mxCell id="UfKM8jFbWh5Io7jbaa0r-15" value="{ id: 1" style="rounded=0;whiteSpace=wrap;html=1;fontSize=13;align=center;fontStyle=0" vertex="1" parent="SkgSwd5YiuYWyeFVLWRK-1">
                    <mxGeometry x="770" y="450" width="90" height="22.5" as="geometry"/>
                </mxCell>
            </root>
        </mxGraphModel>
    </diagram>
    <diagram id="OeI3AAyADI0WaWZ9AgDv" name="19 - search">
        <mxGraphModel dx="469" dy="289" grid="1" gridSize="10" guides="1" tooltips="1" connect="1" arrows="1" fold="1" page="1" pageScale="1" pageWidth="1920" pageHeight="1200" math="0" shadow="0">
            <root>
                <mxCell id="xMxt-KdZzc2aCMyDB3iN-0"/>
                <mxCell id="xMxt-KdZzc2aCMyDB3iN-1" parent="xMxt-KdZzc2aCMyDB3iN-0"/>
                <mxCell id="xMxt-KdZzc2aCMyDB3iN-2" value="Estimate Criteria" style="rounded=0;whiteSpace=wrap;html=1;fontSize=13;align=center;fontStyle=1;fillColor=#f5f5f5;strokeColor=#666666;fontColor=#333333;" vertex="1" parent="xMxt-KdZzc2aCMyDB3iN-1">
                    <mxGeometry x="420" y="320" width="190" height="30" as="geometry"/>
                </mxCell>
                <mxCell id="xMxt-KdZzc2aCMyDB3iN-3" style="edgeStyle=orthogonalEdgeStyle;rounded=0;orthogonalLoop=1;jettySize=auto;html=1;exitX=1;exitY=0.5;exitDx=0;exitDy=0;startArrow=none;startFill=0;strokeWidth=1;fontSize=13;" edge="1" parent="xMxt-KdZzc2aCMyDB3iN-1" source="xMxt-KdZzc2aCMyDB3iN-4" target="xMxt-KdZzc2aCMyDB3iN-6">
                    <mxGeometry relative="1" as="geometry"/>
                </mxCell>
                <mxCell id="xMxt-KdZzc2aCMyDB3iN-4" value="lng" style="rounded=0;whiteSpace=wrap;html=1;fontSize=13;align=center;fontStyle=0" vertex="1" parent="xMxt-KdZzc2aCMyDB3iN-1">
                    <mxGeometry x="420" y="420" width="90" height="22.5" as="geometry"/>
                </mxCell>
                <mxCell id="xMxt-KdZzc2aCMyDB3iN-5" value="lat" style="rounded=0;whiteSpace=wrap;html=1;fontSize=13;align=center;fontStyle=0" vertex="1" parent="xMxt-KdZzc2aCMyDB3iN-1">
                    <mxGeometry x="420" y="450.5" width="90" height="22.5" as="geometry"/>
                </mxCell>
                <mxCell id="xMxt-KdZzc2aCMyDB3iN-6" value="45" style="rounded=0;whiteSpace=wrap;html=1;fontSize=13;align=center;fontStyle=0" vertex="1" parent="xMxt-KdZzc2aCMyDB3iN-1">
                    <mxGeometry x="530" y="420" width="80" height="22.5" as="geometry"/>
                </mxCell>
                <mxCell id="xMxt-KdZzc2aCMyDB3iN-7" style="edgeStyle=orthogonalEdgeStyle;rounded=0;orthogonalLoop=1;jettySize=auto;html=1;exitX=1;exitY=0.5;exitDx=0;exitDy=0;startArrow=none;startFill=0;strokeWidth=1;fontSize=13;" edge="1" parent="xMxt-KdZzc2aCMyDB3iN-1" target="xMxt-KdZzc2aCMyDB3iN-8">
                    <mxGeometry relative="1" as="geometry">
                        <mxPoint x="510" y="461.75" as="sourcePoint"/>
                    </mxGeometry>
                </mxCell>
                <mxCell id="xMxt-KdZzc2aCMyDB3iN-8" value="45" style="rounded=0;whiteSpace=wrap;html=1;fontSize=13;align=center;fontStyle=0" vertex="1" parent="xMxt-KdZzc2aCMyDB3iN-1">
                    <mxGeometry x="530" y="450.5" width="80" height="22.5" as="geometry"/>
                </mxCell>
                <mxCell id="xMxt-KdZzc2aCMyDB3iN-9" value="make" style="rounded=0;whiteSpace=wrap;html=1;fontSize=13;align=center;fontStyle=0" vertex="1" parent="xMxt-KdZzc2aCMyDB3iN-1">
                    <mxGeometry x="420" y="360" width="90" height="22.5" as="geometry"/>
                </mxCell>
                <mxCell id="xMxt-KdZzc2aCMyDB3iN-10" style="edgeStyle=orthogonalEdgeStyle;rounded=0;orthogonalLoop=1;jettySize=auto;html=1;exitX=1;exitY=0.5;exitDx=0;exitDy=0;startArrow=none;startFill=0;strokeWidth=1;fontSize=13;" edge="1" parent="xMxt-KdZzc2aCMyDB3iN-1" target="xMxt-KdZzc2aCMyDB3iN-11">
                    <mxGeometry relative="1" as="geometry">
                        <mxPoint x="510" y="371.25" as="sourcePoint"/>
                    </mxGeometry>
                </mxCell>
                <mxCell id="xMxt-KdZzc2aCMyDB3iN-11" value="toyota" style="rounded=0;whiteSpace=wrap;html=1;fontSize=13;align=center;fontStyle=0" vertex="1" parent="xMxt-KdZzc2aCMyDB3iN-1">
                    <mxGeometry x="530" y="360" width="80" height="22.5" as="geometry"/>
                </mxCell>
                <mxCell id="xMxt-KdZzc2aCMyDB3iN-12" value="model" style="rounded=0;whiteSpace=wrap;html=1;fontSize=13;align=center;fontStyle=0" vertex="1" parent="xMxt-KdZzc2aCMyDB3iN-1">
                    <mxGeometry x="420" y="390" width="90" height="22.5" as="geometry"/>
                </mxCell>
                <mxCell id="xMxt-KdZzc2aCMyDB3iN-13" style="edgeStyle=orthogonalEdgeStyle;rounded=0;orthogonalLoop=1;jettySize=auto;html=1;exitX=1;exitY=0.5;exitDx=0;exitDy=0;startArrow=none;startFill=0;strokeWidth=1;fontSize=13;" edge="1" parent="xMxt-KdZzc2aCMyDB3iN-1" target="xMxt-KdZzc2aCMyDB3iN-14">
                    <mxGeometry relative="1" as="geometry">
                        <mxPoint x="510" y="401.25" as="sourcePoint"/>
                    </mxGeometry>
                </mxCell>
                <mxCell id="xMxt-KdZzc2aCMyDB3iN-14" value="corolla" style="rounded=0;whiteSpace=wrap;html=1;fontSize=13;align=center;fontStyle=0" vertex="1" parent="xMxt-KdZzc2aCMyDB3iN-1">
                    <mxGeometry x="530" y="390" width="80" height="22.5" as="geometry"/>
                </mxCell>
                <mxCell id="xMxt-KdZzc2aCMyDB3iN-15" style="edgeStyle=orthogonalEdgeStyle;rounded=0;orthogonalLoop=1;jettySize=auto;html=1;exitX=1;exitY=0.5;exitDx=0;exitDy=0;startArrow=none;startFill=0;strokeWidth=1;fontSize=13;" edge="1" parent="xMxt-KdZzc2aCMyDB3iN-1" source="xMxt-KdZzc2aCMyDB3iN-16" target="xMxt-KdZzc2aCMyDB3iN-18">
                    <mxGeometry relative="1" as="geometry"/>
                </mxCell>
                <mxCell id="xMxt-KdZzc2aCMyDB3iN-16" value="year" style="rounded=0;whiteSpace=wrap;html=1;fontSize=13;align=center;fontStyle=0" vertex="1" parent="xMxt-KdZzc2aCMyDB3iN-1">
                    <mxGeometry x="420" y="480" width="90" height="22.5" as="geometry"/>
                </mxCell>
                <mxCell id="xMxt-KdZzc2aCMyDB3iN-17" value="mileage" style="rounded=0;whiteSpace=wrap;html=1;fontSize=13;align=center;fontStyle=0" vertex="1" parent="xMxt-KdZzc2aCMyDB3iN-1">
                    <mxGeometry x="420" y="510.5" width="90" height="22.5" as="geometry"/>
                </mxCell>
                <mxCell id="xMxt-KdZzc2aCMyDB3iN-18" value="1980" style="rounded=0;whiteSpace=wrap;html=1;fontSize=13;align=center;fontStyle=0" vertex="1" parent="xMxt-KdZzc2aCMyDB3iN-1">
                    <mxGeometry x="530" y="480" width="80" height="22.5" as="geometry"/>
                </mxCell>
                <mxCell id="xMxt-KdZzc2aCMyDB3iN-19" style="edgeStyle=orthogonalEdgeStyle;rounded=0;orthogonalLoop=1;jettySize=auto;html=1;exitX=1;exitY=0.5;exitDx=0;exitDy=0;startArrow=none;startFill=0;strokeWidth=1;fontSize=13;" edge="1" parent="xMxt-KdZzc2aCMyDB3iN-1" target="xMxt-KdZzc2aCMyDB3iN-20">
                    <mxGeometry relative="1" as="geometry">
                        <mxPoint x="510" y="521.75" as="sourcePoint"/>
                    </mxGeometry>
                </mxCell>
                <mxCell id="xMxt-KdZzc2aCMyDB3iN-20" value="20000" style="rounded=0;whiteSpace=wrap;html=1;fontSize=13;align=center;fontStyle=0" vertex="1" parent="xMxt-KdZzc2aCMyDB3iN-1">
                    <mxGeometry x="530" y="510.5" width="80" height="22.5" as="geometry"/>
                </mxCell>
                <mxCell id="xMxt-KdZzc2aCMyDB3iN-21" value="" style="shape=curlyBracket;whiteSpace=wrap;html=1;rounded=1;fontSize=13;align=center;rotation=-180;" vertex="1" parent="xMxt-KdZzc2aCMyDB3iN-1">
                    <mxGeometry x="620" y="360.5" width="40" height="52" as="geometry"/>
                </mxCell>
                <mxCell id="xMxt-KdZzc2aCMyDB3iN-22" value="" style="shape=curlyBracket;whiteSpace=wrap;html=1;rounded=1;fontSize=13;align=center;rotation=-180;" vertex="1" parent="xMxt-KdZzc2aCMyDB3iN-1">
                    <mxGeometry x="620" y="420" width="40" height="52" as="geometry"/>
                </mxCell>
                <mxCell id="xMxt-KdZzc2aCMyDB3iN-23" value="" style="shape=curlyBracket;whiteSpace=wrap;html=1;rounded=1;fontSize=13;align=center;rotation=-180;" vertex="1" parent="xMxt-KdZzc2aCMyDB3iN-1">
                    <mxGeometry x="620" y="480" width="40" height="22" as="geometry"/>
                </mxCell>
                <mxCell id="xMxt-KdZzc2aCMyDB3iN-24" value="" style="shape=curlyBracket;whiteSpace=wrap;html=1;rounded=1;fontSize=13;align=center;rotation=-180;" vertex="1" parent="xMxt-KdZzc2aCMyDB3iN-1">
                    <mxGeometry x="620" y="511" width="40" height="22" as="geometry"/>
                </mxCell>
                <mxCell id="xMxt-KdZzc2aCMyDB3iN-25" value="Find reports for the same make/model" style="rounded=0;whiteSpace=wrap;html=1;fontSize=13;align=center;fillColor=#dae8fc;strokeColor=#6c8ebf;" vertex="1" parent="xMxt-KdZzc2aCMyDB3iN-1">
                    <mxGeometry x="660" y="368" width="150" height="37" as="geometry"/>
                </mxCell>
                <mxCell id="xMxt-KdZzc2aCMyDB3iN-26" value="Search through all reports we have..." style="rounded=0;whiteSpace=wrap;html=1;fontSize=13;align=center;fillColor=#dae8fc;strokeColor=#6c8ebf;" vertex="1" parent="xMxt-KdZzc2aCMyDB3iN-1">
                    <mxGeometry x="660" y="323.5" width="150" height="37" as="geometry"/>
                </mxCell>
                <mxCell id="xMxt-KdZzc2aCMyDB3iN-27" value="Within +/- 5 degrees" style="rounded=0;whiteSpace=wrap;html=1;fontSize=13;align=center;fillColor=#dae8fc;strokeColor=#6c8ebf;" vertex="1" parent="xMxt-KdZzc2aCMyDB3iN-1">
                    <mxGeometry x="660" y="427.5" width="150" height="37" as="geometry"/>
                </mxCell>
                <mxCell id="xMxt-KdZzc2aCMyDB3iN-28" value="Within 3 years" style="rounded=0;whiteSpace=wrap;html=1;fontSize=13;align=center;fillColor=#dae8fc;strokeColor=#6c8ebf;" vertex="1" parent="xMxt-KdZzc2aCMyDB3iN-1">
                    <mxGeometry x="660" y="479.5" width="150" height="23.5" as="geometry"/>
                </mxCell>
                <mxCell id="xMxt-KdZzc2aCMyDB3iN-31" style="edgeStyle=orthogonalEdgeStyle;rounded=0;orthogonalLoop=1;jettySize=auto;html=1;exitX=0.5;exitY=1;exitDx=0;exitDy=0;startArrow=none;startFill=0;strokeWidth=1;fontSize=13;" edge="1" parent="xMxt-KdZzc2aCMyDB3iN-1" source="xMxt-KdZzc2aCMyDB3iN-30">
                    <mxGeometry relative="1" as="geometry">
                        <mxPoint x="735" y="570" as="targetPoint"/>
                    </mxGeometry>
                </mxCell>
                <mxCell id="xMxt-KdZzc2aCMyDB3iN-30" value="Order by closest mileage" style="rounded=0;whiteSpace=wrap;html=1;fontSize=13;align=center;fillColor=#dae8fc;strokeColor=#6c8ebf;" vertex="1" parent="xMxt-KdZzc2aCMyDB3iN-1">
                    <mxGeometry x="660" y="510" width="150" height="23.5" as="geometry"/>
                </mxCell>
                <mxCell id="xMxt-KdZzc2aCMyDB3iN-32" value="Report" style="rounded=0;whiteSpace=wrap;html=1;fontSize=13;align=center;" vertex="1" parent="xMxt-KdZzc2aCMyDB3iN-1">
                    <mxGeometry x="700" y="570" width="70" height="30" as="geometry"/>
                </mxCell>
                <mxCell id="xMxt-KdZzc2aCMyDB3iN-33" value="Report" style="rounded=0;whiteSpace=wrap;html=1;fontSize=13;align=center;" vertex="1" parent="xMxt-KdZzc2aCMyDB3iN-1">
                    <mxGeometry x="630" y="570" width="70" height="30" as="geometry"/>
                </mxCell>
                <mxCell id="xMxt-KdZzc2aCMyDB3iN-34" value="Report" style="rounded=0;whiteSpace=wrap;html=1;fontSize=13;align=center;" vertex="1" parent="xMxt-KdZzc2aCMyDB3iN-1">
                    <mxGeometry x="770" y="570" width="70" height="30" as="geometry"/>
                </mxCell>
                <mxCell id="xMxt-KdZzc2aCMyDB3iN-35" value="" style="shape=curlyBracket;whiteSpace=wrap;html=1;rounded=1;fontSize=13;align=center;rotation=-90;" vertex="1" parent="xMxt-KdZzc2aCMyDB3iN-1">
                    <mxGeometry x="725" y="510" width="20" height="210" as="geometry"/>
                </mxCell>
                <mxCell id="xMxt-KdZzc2aCMyDB3iN-36" value="Take the top 3 closest reports and average their value" style="text;html=1;strokeColor=none;fillColor=none;align=center;verticalAlign=middle;whiteSpace=wrap;rounded=0;fontSize=13;fontStyle=2" vertex="1" parent="xMxt-KdZzc2aCMyDB3iN-1">
                    <mxGeometry x="642.5" y="630" width="185" height="20" as="geometry"/>
                </mxCell>
            </root>
        </mxGraphModel>
    </diagram>
    <diagram id="3Ttd-jSchbKuoSRW1doM" name="20 - repo">
        <mxGraphModel dx="469" dy="289" grid="1" gridSize="10" guides="1" tooltips="1" connect="1" arrows="1" fold="1" page="1" pageScale="1" pageWidth="1920" pageHeight="1200" math="0" shadow="0">
            <root>
                <mxCell id="gQHKNd9aHkyeTHDGM1JX-0"/>
                <mxCell id="gQHKNd9aHkyeTHDGM1JX-1" parent="gQHKNd9aHkyeTHDGM1JX-0"/>
                <mxCell id="gQHKNd9aHkyeTHDGM1JX-2" value="TypeORM Repository" style="rounded=0;whiteSpace=wrap;html=1;fontSize=13;align=center;fontStyle=1;fillColor=#dae8fc;strokeColor=#6c8ebf;" vertex="1" parent="gQHKNd9aHkyeTHDGM1JX-1">
                    <mxGeometry x="590" y="300" width="270" height="30" as="geometry"/>
                </mxCell>
                <mxCell id="gQHKNd9aHkyeTHDGM1JX-11" style="edgeStyle=orthogonalEdgeStyle;rounded=0;orthogonalLoop=1;jettySize=auto;html=1;exitX=1;exitY=0.5;exitDx=0;exitDy=0;startArrow=none;startFill=0;strokeWidth=1;fontSize=13;" edge="1" parent="gQHKNd9aHkyeTHDGM1JX-1" source="gQHKNd9aHkyeTHDGM1JX-3" target="gQHKNd9aHkyeTHDGM1JX-7">
                    <mxGeometry relative="1" as="geometry"/>
                </mxCell>
                <mxCell id="gQHKNd9aHkyeTHDGM1JX-3" value="create" style="rounded=0;whiteSpace=wrap;html=1;fontSize=13;align=center;fontStyle=0;" vertex="1" parent="gQHKNd9aHkyeTHDGM1JX-1">
                    <mxGeometry x="590" y="340" width="100" height="30" as="geometry"/>
                </mxCell>
                <mxCell id="gQHKNd9aHkyeTHDGM1JX-12" style="edgeStyle=orthogonalEdgeStyle;rounded=0;orthogonalLoop=1;jettySize=auto;html=1;exitX=1;exitY=0.5;exitDx=0;exitDy=0;startArrow=none;startFill=0;strokeWidth=1;fontSize=13;" edge="1" parent="gQHKNd9aHkyeTHDGM1JX-1" source="gQHKNd9aHkyeTHDGM1JX-4" target="gQHKNd9aHkyeTHDGM1JX-8">
                    <mxGeometry relative="1" as="geometry"/>
                </mxCell>
                <mxCell id="gQHKNd9aHkyeTHDGM1JX-4" value="save" style="rounded=0;whiteSpace=wrap;html=1;fontSize=13;align=center;fontStyle=0;" vertex="1" parent="gQHKNd9aHkyeTHDGM1JX-1">
                    <mxGeometry x="590" y="380" width="100" height="30" as="geometry"/>
                </mxCell>
                <mxCell id="gQHKNd9aHkyeTHDGM1JX-13" style="edgeStyle=orthogonalEdgeStyle;rounded=0;orthogonalLoop=1;jettySize=auto;html=1;exitX=1;exitY=0.5;exitDx=0;exitDy=0;startArrow=none;startFill=0;strokeWidth=1;fontSize=13;" edge="1" parent="gQHKNd9aHkyeTHDGM1JX-1" source="gQHKNd9aHkyeTHDGM1JX-5" target="gQHKNd9aHkyeTHDGM1JX-9">
                    <mxGeometry relative="1" as="geometry"/>
                </mxCell>
                <mxCell id="gQHKNd9aHkyeTHDGM1JX-5" value="find" style="rounded=0;whiteSpace=wrap;html=1;fontSize=13;align=center;fontStyle=0;" vertex="1" parent="gQHKNd9aHkyeTHDGM1JX-1">
                    <mxGeometry x="590" y="420" width="100" height="30" as="geometry"/>
                </mxCell>
                <mxCell id="gQHKNd9aHkyeTHDGM1JX-14" style="edgeStyle=orthogonalEdgeStyle;rounded=0;orthogonalLoop=1;jettySize=auto;html=1;exitX=1;exitY=0.5;exitDx=0;exitDy=0;startArrow=none;startFill=0;strokeWidth=1;fontSize=13;" edge="1" parent="gQHKNd9aHkyeTHDGM1JX-1" source="gQHKNd9aHkyeTHDGM1JX-6" target="gQHKNd9aHkyeTHDGM1JX-10">
                    <mxGeometry relative="1" as="geometry"/>
                </mxCell>
                <mxCell id="gQHKNd9aHkyeTHDGM1JX-6" value="findOne" style="rounded=0;whiteSpace=wrap;html=1;fontSize=13;align=center;fontStyle=0;" vertex="1" parent="gQHKNd9aHkyeTHDGM1JX-1">
                    <mxGeometry x="590" y="460" width="100" height="30" as="geometry"/>
                </mxCell>
                <mxCell id="gQHKNd9aHkyeTHDGM1JX-7" value="Make a new instance of an entity, but don't save it" style="rounded=0;whiteSpace=wrap;html=1;fontSize=9;align=center;fontStyle=0;" vertex="1" parent="gQHKNd9aHkyeTHDGM1JX-1">
                    <mxGeometry x="720" y="340" width="140" height="30" as="geometry"/>
                </mxCell>
                <mxCell id="gQHKNd9aHkyeTHDGM1JX-8" value="Save an entity, either inserting it into the DB or updating it" style="rounded=0;whiteSpace=wrap;html=1;fontSize=9;align=center;fontStyle=0;" vertex="1" parent="gQHKNd9aHkyeTHDGM1JX-1">
                    <mxGeometry x="720" y="380" width="140" height="30" as="geometry"/>
                </mxCell>
                <mxCell id="gQHKNd9aHkyeTHDGM1JX-9" value="Find all entities with a given search criteria" style="rounded=0;whiteSpace=wrap;html=1;fontSize=9;align=center;fontStyle=0;" vertex="1" parent="gQHKNd9aHkyeTHDGM1JX-1">
                    <mxGeometry x="720" y="420" width="140" height="30" as="geometry"/>
                </mxCell>
                <mxCell id="gQHKNd9aHkyeTHDGM1JX-10" value="Find one entity with a given ID or criteria" style="rounded=0;whiteSpace=wrap;html=1;fontSize=9;align=center;fontStyle=0;" vertex="1" parent="gQHKNd9aHkyeTHDGM1JX-1">
                    <mxGeometry x="720" y="460" width="140" height="30" as="geometry"/>
                </mxCell>
                <mxCell id="gQHKNd9aHkyeTHDGM1JX-15" style="edgeStyle=orthogonalEdgeStyle;rounded=0;orthogonalLoop=1;jettySize=auto;html=1;exitX=1;exitY=0.5;exitDx=0;exitDy=0;startArrow=none;startFill=0;strokeWidth=1;fontSize=13;" edge="1" parent="gQHKNd9aHkyeTHDGM1JX-1" source="gQHKNd9aHkyeTHDGM1JX-16" target="gQHKNd9aHkyeTHDGM1JX-17">
                    <mxGeometry relative="1" as="geometry"/>
                </mxCell>
                <mxCell id="gQHKNd9aHkyeTHDGM1JX-16" value="createQueryBuilder" style="rounded=0;whiteSpace=wrap;html=1;fontSize=10;align=center;fontStyle=0;" vertex="1" parent="gQHKNd9aHkyeTHDGM1JX-1">
                    <mxGeometry x="590" y="500" width="100" height="30" as="geometry"/>
                </mxCell>
                <mxCell id="gQHKNd9aHkyeTHDGM1JX-17" value="Returns a query builder that can be used for complex queries" style="rounded=0;whiteSpace=wrap;html=1;fontSize=9;align=center;fontStyle=0;" vertex="1" parent="gQHKNd9aHkyeTHDGM1JX-1">
                    <mxGeometry x="720" y="500" width="140" height="30" as="geometry"/>
                </mxCell>
            </root>
        </mxGraphModel>
    </diagram>
</mxfile>